<?xml version="1.0" encoding="UTF-8" standalone="no"?><svg xmlns="http://www.w3.org/2000/svg" xmlns:xlink="http://www.w3.org/1999/xlink" contentScriptType="application/ecmascript" contentStyleType="text/css" height="1235px" preserveAspectRatio="none" style="width:1656px;height:1235px;" version="1.1" viewBox="0 0 1656 1235" width="1656px" zoomAndPan="magnify"><defs><filter height="300%" id="f1529o5bzp3b6y" width="300%" x="-1" y="-1"><feGaussianBlur result="blurOut" stdDeviation="2.0"/><feColorMatrix in="blurOut" result="blurOut2" type="matrix" values="0 0 0 0 0 0 0 0 0 0 0 0 0 0 0 0 0 0 .4 0"/><feOffset dx="4.0" dy="4.0" in="blurOut2" result="blurOut3"/><feBlend in="SourceGraphic" in2="blurOut3" mode="normal"/></filter></defs><g><!--class Iterable--><rect fill="#FEFECE" filter="url(#f1529o5bzp3b6y)" height="60.8047" id="Iterable" style="stroke: #A80036; stroke-width: 1.5;" width="133" x="752.5" y="8"/><ellipse cx="785.95" cy="24" fill="#B4A7E5" rx="11" ry="11" style="stroke: #A80036; stroke-width: 1.0;"/><path d="M786.9031,20.7813 L786.9031,27.2969 L788.6219,27.2969 C789.075,27.2969 789.2156,27.3281 789.3875,27.4531 C789.6219,27.625 789.7313,27.875 789.7313,28.1563 C789.7313,28.7188 789.3719,29 788.6219,29 L783.4813,29 C783.075,29 782.8719,28.9531 782.7156,28.8281 C782.4969,28.6719 782.3563,28.4063 782.3563,28.1563 C782.3563,27.8594 782.5125,27.5781 782.7625,27.4219 C782.9188,27.3125 783.0438,27.2969 783.4813,27.2969 L785.2,27.2969 L785.2,20.7813 L783.4813,20.7813 C783.0594,20.7813 782.8719,20.75 782.7156,20.6406 C782.4969,20.4688 782.3563,20.2188 782.3563,19.9375 C782.3563,19.6563 782.5125,19.3594 782.7625,19.2031 C782.9188,19.1094 783.0438,19.0938 783.4813,19.0938 L788.6219,19.0938 C789.075,19.0938 789.2156,19.125 789.3875,19.2344 C789.6219,19.4063 789.7313,19.6719 789.7313,19.9375 C789.7313,20.2344 789.5906,20.5156 789.325,20.6719 C789.2,20.75 789.0125,20.7813 788.6219,20.7813 Z "/><text fill="#000000" font-family="sans-serif" font-size="12" font-style="italic" lengthAdjust="spacingAndGlyphs" textLength="49" x="804.05" y="28.1543">Iterable</text><rect fill="#FFFFFF" height="15.9688" style="stroke: #000000; stroke-width: 1.0; stroke-dasharray: 2.0,2.0;" width="9" x="879.5" y="5"/><text fill="#000000" font-family="sans-serif" font-size="12" font-style="italic" lengthAdjust="spacingAndGlyphs" textLength="7" x="880.5" y="17.1387">T</text><line style="stroke: #A80036; stroke-width: 1.5;" x1="753.5" x2="884.5" y1="40" y2="40"/><line style="stroke: #A80036; stroke-width: 1.5;" x1="753.5" x2="884.5" y1="48" y2="48"/><text fill="#000000" font-family="sans-serif" font-size="11" lengthAdjust="spacingAndGlyphs" textLength="121" x="758.5" y="62.2104">Iterator&lt;T&gt; iterator()</text><!--class Map--><rect fill="#FEFECE" filter="url(#f1529o5bzp3b6y)" height="201.6563" id="Map" style="stroke: #A80036; stroke-width: 1.5;" width="274" x="272" y="148"/><ellipse cx="379.75" cy="164" fill="#B4A7E5" rx="11" ry="11" style="stroke: #A80036; stroke-width: 1.0;"/><path d="M380.7031,160.7813 L380.7031,167.2969 L382.4219,167.2969 C382.875,167.2969 383.0156,167.3281 383.1875,167.4531 C383.4219,167.625 383.5313,167.875 383.5313,168.1563 C383.5313,168.7188 383.1719,169 382.4219,169 L377.2813,169 C376.875,169 376.6719,168.9531 376.5156,168.8281 C376.2969,168.6719 376.1563,168.4063 376.1563,168.1563 C376.1563,167.8594 376.3125,167.5781 376.5625,167.4219 C376.7188,167.3125 376.8438,167.2969 377.2813,167.2969 L379,167.2969 L379,160.7813 L377.2813,160.7813 C376.8594,160.7813 376.6719,160.75 376.5156,160.6406 C376.2969,160.4688 376.1563,160.2188 376.1563,159.9375 C376.1563,159.6563 376.3125,159.3594 376.5625,159.2031 C376.7188,159.1094 376.8438,159.0938 377.2813,159.0938 L382.4219,159.0938 C382.875,159.0938 383.0156,159.125 383.1875,159.2344 C383.4219,159.4063 383.5313,159.6719 383.5313,159.9375 C383.5313,160.2344 383.3906,160.5156 383.125,160.6719 C383,160.75 382.8125,160.7813 382.4219,160.7813 Z "/><text fill="#000000" font-family="sans-serif" font-size="12" font-style="italic" lengthAdjust="spacingAndGlyphs" textLength="26" x="400.25" y="168.1543">Map</text><rect fill="#FFFFFF" height="15.9688" style="stroke: #000000; stroke-width: 1.0; stroke-dasharray: 2.0,2.0;" width="22" x="527" y="145"/><text fill="#000000" font-family="sans-serif" font-size="12" font-style="italic" lengthAdjust="spacingAndGlyphs" textLength="20" x="528" y="157.1387">K,V</text><line style="stroke: #A80036; stroke-width: 1.5;" x1="273" x2="545" y1="180" y2="180"/><line style="stroke: #A80036; stroke-width: 1.5;" x1="273" x2="545" y1="188" y2="188"/><text fill="#000000" font-family="sans-serif" font-size="11" lengthAdjust="spacingAndGlyphs" textLength="48" x="278" y="202.2104">int size()</text><text fill="#000000" font-family="sans-serif" font-size="11" lengthAdjust="spacingAndGlyphs" textLength="102" x="278" y="215.0151">boolean isEmpty()</text><text fill="#000000" font-family="sans-serif" font-size="11" lengthAdjust="spacingAndGlyphs" textLength="184" x="278" y="227.8198">boolean containsKey(Object key)</text><text fill="#000000" font-family="sans-serif" font-size="11" lengthAdjust="spacingAndGlyphs" textLength="206" x="278" y="240.6245">boolean containsValue(Object value)</text><text fill="#000000" font-family="sans-serif" font-size="11" lengthAdjust="spacingAndGlyphs" textLength="96" x="278" y="253.4292">V get(Object key)</text><text fill="#000000" font-family="sans-serif" font-size="11" lengthAdjust="spacingAndGlyphs" textLength="116" x="278" y="266.2339">V put(K key, V value)</text><text fill="#000000" font-family="sans-serif" font-size="11" lengthAdjust="spacingAndGlyphs" textLength="121" x="278" y="279.0386">V remove(Object key)</text><text fill="#000000" font-family="sans-serif" font-size="11" lengthAdjust="spacingAndGlyphs" textLength="262" x="278" y="291.8433">void putAll(Map&lt;? extends K, ? extends V&gt; m)</text><text fill="#000000" font-family="sans-serif" font-size="11" lengthAdjust="spacingAndGlyphs" textLength="63" x="278" y="304.6479">void clear()</text><text fill="#000000" font-family="sans-serif" font-size="11" lengthAdjust="spacingAndGlyphs" textLength="94" x="278" y="317.4526">Set&lt;K&gt; keySet()</text><text fill="#000000" font-family="sans-serif" font-size="11" lengthAdjust="spacingAndGlyphs" textLength="129" x="278" y="330.2573">Collection&lt;V&gt; values()</text><text fill="#000000" font-family="sans-serif" font-size="11" lengthAdjust="spacingAndGlyphs" textLength="193" x="278" y="343.062">Set&lt;Map.Entry&lt;K, V&gt;&gt; entrySet()</text><!--class Collection--><rect fill="#FEFECE" filter="url(#f1529o5bzp3b6y)" height="240.0703" id="Collection" style="stroke: #A80036; stroke-width: 1.5;" width="252" x="693" y="129"/><ellipse cx="778.25" cy="145" fill="#B4A7E5" rx="11" ry="11" style="stroke: #A80036; stroke-width: 1.0;"/><path d="M779.2031,141.7813 L779.2031,148.2969 L780.9219,148.2969 C781.375,148.2969 781.5156,148.3281 781.6875,148.4531 C781.9219,148.625 782.0313,148.875 782.0313,149.1563 C782.0313,149.7188 781.6719,150 780.9219,150 L775.7813,150 C775.375,150 775.1719,149.9531 775.0156,149.8281 C774.7969,149.6719 774.6563,149.4063 774.6563,149.1563 C774.6563,148.8594 774.8125,148.5781 775.0625,148.4219 C775.2188,148.3125 775.3438,148.2969 775.7813,148.2969 L777.5,148.2969 L777.5,141.7813 L775.7813,141.7813 C775.3594,141.7813 775.1719,141.75 775.0156,141.6406 C774.7969,141.4688 774.6563,141.2188 774.6563,140.9375 C774.6563,140.6563 774.8125,140.3594 775.0625,140.2031 C775.2188,140.1094 775.3438,140.0938 775.7813,140.0938 L780.9219,140.0938 C781.375,140.0938 781.5156,140.125 781.6875,140.2344 C781.9219,140.4063 782.0313,140.6719 782.0313,140.9375 C782.0313,141.2344 781.8906,141.5156 781.625,141.6719 C781.5,141.75 781.3125,141.7813 780.9219,141.7813 Z "/><text fill="#000000" font-family="sans-serif" font-size="12" font-style="italic" lengthAdjust="spacingAndGlyphs" textLength="61" x="798.75" y="149.1543">Collection</text><rect fill="#FFFFFF" height="15.9688" style="stroke: #000000; stroke-width: 1.0; stroke-dasharray: 2.0,2.0;" width="10" x="938" y="126"/><text fill="#000000" font-family="sans-serif" font-size="12" font-style="italic" lengthAdjust="spacingAndGlyphs" textLength="8" x="939" y="138.1387">E</text><line style="stroke: #A80036; stroke-width: 1.5;" x1="694" x2="944" y1="161" y2="161"/><line style="stroke: #A80036; stroke-width: 1.5;" x1="694" x2="944" y1="169" y2="169"/><text fill="#000000" font-family="sans-serif" font-size="11" lengthAdjust="spacingAndGlyphs" textLength="48" x="699" y="183.2104">int size()</text><text fill="#000000" font-family="sans-serif" font-size="11" lengthAdjust="spacingAndGlyphs" textLength="0" x="703" y="196.0151"/><text fill="#000000" font-family="sans-serif" font-size="11" lengthAdjust="spacingAndGlyphs" textLength="97" x="699" y="208.8198">Object[] toArray()</text><text fill="#000000" font-family="sans-serif" font-size="11" lengthAdjust="spacingAndGlyphs" textLength="123" x="699" y="221.6245">&lt;T&gt; T[] toArray(T[] a)</text><text fill="#000000" font-family="sans-serif" font-size="11" lengthAdjust="spacingAndGlyphs" textLength="0" x="703" y="234.4292"/><text fill="#000000" font-family="sans-serif" font-size="11" lengthAdjust="spacingAndGlyphs" textLength="96" x="699" y="247.2339">boolean add(E e)</text><text fill="#000000" font-family="sans-serif" font-size="11" lengthAdjust="spacingAndGlyphs" textLength="240" x="699" y="260.0386">boolean addAll(Collection&lt;? extends E&gt; c)</text><text fill="#000000" font-family="sans-serif" font-size="11" lengthAdjust="spacingAndGlyphs" textLength="147" x="699" y="272.8433">boolean remove(Object o)</text><text fill="#000000" font-family="sans-serif" font-size="11" lengthAdjust="spacingAndGlyphs" textLength="63" x="699" y="285.6479">void clear()</text><text fill="#000000" font-family="sans-serif" font-size="11" lengthAdjust="spacingAndGlyphs" textLength="0" x="703" y="298.4526"/><text fill="#000000" font-family="sans-serif" font-size="11" lengthAdjust="spacingAndGlyphs" textLength="192" x="699" y="311.2573">boolean retainAll(Collection&lt;?&gt; c)</text><text fill="#000000" font-family="sans-serif" font-size="11" lengthAdjust="spacingAndGlyphs" textLength="0" x="703" y="324.062"/><text fill="#000000" font-family="sans-serif" font-size="11" lengthAdjust="spacingAndGlyphs" textLength="102" x="699" y="336.8667">boolean isEmpty()</text><text fill="#000000" font-family="sans-serif" font-size="11" lengthAdjust="spacingAndGlyphs" textLength="152" x="699" y="349.6714">boolean contains(Object o)</text><text fill="#000000" font-family="sans-serif" font-size="11" lengthAdjust="spacingAndGlyphs" textLength="207" x="699" y="362.4761">boolean containsAll(Collection&lt;?&gt; c)</text><!--class Queue--><rect fill="#FEFECE" filter="url(#f1529o5bzp3b6y)" height="99.2188" id="Queue" style="stroke: #A80036; stroke-width: 1.5;" width="114" x="653" y="442"/><ellipse cx="681.5" cy="458" fill="#B4A7E5" rx="11" ry="11" style="stroke: #A80036; stroke-width: 1.0;"/><path d="M682.4531,454.7813 L682.4531,461.2969 L684.1719,461.2969 C684.625,461.2969 684.7656,461.3281 684.9375,461.4531 C685.1719,461.625 685.2813,461.875 685.2813,462.1563 C685.2813,462.7188 684.9219,463 684.1719,463 L679.0313,463 C678.625,463 678.4219,462.9531 678.2656,462.8281 C678.0469,462.6719 677.9063,462.4063 677.9063,462.1563 C677.9063,461.8594 678.0625,461.5781 678.3125,461.4219 C678.4688,461.3125 678.5938,461.2969 679.0313,461.2969 L680.75,461.2969 L680.75,454.7813 L679.0313,454.7813 C678.6094,454.7813 678.4219,454.75 678.2656,454.6406 C678.0469,454.4688 677.9063,454.2188 677.9063,453.9375 C677.9063,453.6563 678.0625,453.3594 678.3125,453.2031 C678.4688,453.1094 678.5938,453.0938 679.0313,453.0938 L684.1719,453.0938 C684.625,453.0938 684.7656,453.125 684.9375,453.2344 C685.1719,453.4063 685.2813,453.6719 685.2813,453.9375 C685.2813,454.2344 685.1406,454.5156 684.875,454.6719 C684.75,454.75 684.5625,454.7813 684.1719,454.7813 Z "/><text fill="#000000" font-family="sans-serif" font-size="12" font-style="italic" lengthAdjust="spacingAndGlyphs" textLength="40" x="698.5" y="462.1543">Queue</text><rect fill="#FFFFFF" height="15.9688" style="stroke: #000000; stroke-width: 1.0; stroke-dasharray: 2.0,2.0;" width="10" x="760" y="439"/><text fill="#000000" font-family="sans-serif" font-size="12" font-style="italic" lengthAdjust="spacingAndGlyphs" textLength="8" x="761" y="451.1387">E</text><line style="stroke: #A80036; stroke-width: 1.5;" x1="654" x2="766" y1="474" y2="474"/><line style="stroke: #A80036; stroke-width: 1.5;" x1="654" x2="766" y1="482" y2="482"/><text fill="#000000" font-family="sans-serif" font-size="11" lengthAdjust="spacingAndGlyphs" textLength="102" x="659" y="496.2104">boolean offer(E e)</text><text fill="#000000" font-family="sans-serif" font-size="11" lengthAdjust="spacingAndGlyphs" textLength="39" x="659" y="509.0151">E poll()</text><text fill="#000000" font-family="sans-serif" font-size="11" lengthAdjust="spacingAndGlyphs" textLength="65" x="659" y="521.8198">E element()</text><text fill="#000000" font-family="sans-serif" font-size="11" lengthAdjust="spacingAndGlyphs" textLength="46" x="659" y="534.6245">E peek()</text><!--class Deque--><rect fill="#FEFECE" filter="url(#f1529o5bzp3b6y)" height="201.6563" id="Deque" style="stroke: #A80036; stroke-width: 1.5;" width="139" x="572.5" y="684.5"/><ellipse cx="611.8" cy="700.5" fill="#B4A7E5" rx="11" ry="11" style="stroke: #A80036; stroke-width: 1.0;"/><path d="M612.7531,697.2813 L612.7531,703.7969 L614.4719,703.7969 C614.925,703.7969 615.0656,703.8281 615.2375,703.9531 C615.4719,704.125 615.5813,704.375 615.5813,704.6563 C615.5813,705.2188 615.2219,705.5 614.4719,705.5 L609.3313,705.5 C608.925,705.5 608.7219,705.4531 608.5656,705.3281 C608.3469,705.1719 608.2063,704.9063 608.2063,704.6563 C608.2063,704.3594 608.3625,704.0781 608.6125,703.9219 C608.7688,703.8125 608.8938,703.7969 609.3313,703.7969 L611.05,703.7969 L611.05,697.2813 L609.3313,697.2813 C608.9094,697.2813 608.7219,697.25 608.5656,697.1406 C608.3469,696.9688 608.2063,696.7188 608.2063,696.4375 C608.2063,696.1563 608.3625,695.8594 608.6125,695.7031 C608.7688,695.6094 608.8938,695.5938 609.3313,695.5938 L614.4719,695.5938 C614.925,695.5938 615.0656,695.625 615.2375,695.7344 C615.4719,695.9063 615.5813,696.1719 615.5813,696.4375 C615.5813,696.7344 615.4406,697.0156 615.175,697.1719 C615.05,697.25 614.8625,697.2813 614.4719,697.2813 Z "/><text fill="#000000" font-family="sans-serif" font-size="12" font-style="italic" lengthAdjust="spacingAndGlyphs" textLength="41" x="631.2" y="704.6543">Deque</text><rect fill="#FFFFFF" height="15.9688" style="stroke: #000000; stroke-width: 1.0; stroke-dasharray: 2.0,2.0;" width="10" x="704.5" y="681.5"/><text fill="#000000" font-family="sans-serif" font-size="12" font-style="italic" lengthAdjust="spacingAndGlyphs" textLength="8" x="705.5" y="693.6387">E</text><line style="stroke: #A80036; stroke-width: 1.5;" x1="573.5" x2="710.5" y1="716.5" y2="716.5"/><line style="stroke: #A80036; stroke-width: 1.5;" x1="573.5" x2="710.5" y1="724.5" y2="724.5"/><text fill="#000000" font-family="sans-serif" font-size="11" lengthAdjust="spacingAndGlyphs" textLength="99" x="578.5" y="738.7104">void addFirst(E e)</text><text fill="#000000" font-family="sans-serif" font-size="11" lengthAdjust="spacingAndGlyphs" textLength="98" x="578.5" y="751.5151">void addLast(E e)</text><text fill="#000000" font-family="sans-serif" font-size="11" lengthAdjust="spacingAndGlyphs" textLength="127" x="578.5" y="764.3198">boolean offerFirst(E e)</text><text fill="#000000" font-family="sans-serif" font-size="11" lengthAdjust="spacingAndGlyphs" textLength="126" x="578.5" y="777.1245">boolean offerLast(E e)</text><text fill="#000000" font-family="sans-serif" font-size="11" lengthAdjust="spacingAndGlyphs" textLength="87" x="578.5" y="789.9292">E removeFirst()</text><text fill="#000000" font-family="sans-serif" font-size="11" lengthAdjust="spacingAndGlyphs" textLength="86" x="578.5" y="802.7339">E removeLast()</text><text fill="#000000" font-family="sans-serif" font-size="11" lengthAdjust="spacingAndGlyphs" textLength="64" x="578.5" y="815.5386">E pollFirst()</text><text fill="#000000" font-family="sans-serif" font-size="11" lengthAdjust="spacingAndGlyphs" textLength="63" x="578.5" y="828.3433">E pollLast()</text><text fill="#000000" font-family="sans-serif" font-size="11" lengthAdjust="spacingAndGlyphs" textLength="62" x="578.5" y="841.1479">E getFirst()</text><text fill="#000000" font-family="sans-serif" font-size="11" lengthAdjust="spacingAndGlyphs" textLength="61" x="578.5" y="853.9526">E getLast()</text><text fill="#000000" font-family="sans-serif" font-size="11" lengthAdjust="spacingAndGlyphs" textLength="71" x="578.5" y="866.7573">E peekFirst()</text><text fill="#000000" font-family="sans-serif" font-size="11" lengthAdjust="spacingAndGlyphs" textLength="70" x="578.5" y="879.562">E peekLast()</text><!--class PriorityQueue--><rect fill="#FEFECE" filter="url(#f1529o5bzp3b6y)" height="48" id="PriorityQueue" style="stroke: #A80036; stroke-width: 1.5;" width="128" x="747" y="761.5"/><ellipse cx="762" cy="777.5" fill="#ADD1B2" rx="11" ry="11" style="stroke: #A80036; stroke-width: 1.0;"/><path d="M764.3438,773.1719 L764.5156,773.25 C764.7344,772.9375 764.9375,772.8438 765.2344,772.8438 C765.5313,772.8438 765.8125,772.9844 765.9688,773.25 C766.0625,773.4063 766.0781,773.5313 766.0781,773.9688 L766.0781,775.3906 C766.0781,775.8125 766.0469,776 765.9375,776.1563 C765.7656,776.375 765.5,776.5156 765.2344,776.5156 C765.0156,776.5156 764.7813,776.4063 764.6406,776.2656 C764.5,776.1406 764.4688,776.0156 764.4063,775.6094 C764.3125,775.2031 764.1406,774.9844 763.6563,774.7031 C763.1875,774.4531 762.5781,774.2969 762,774.2969 C760.2656,774.2969 759.0156,775.6094 759.0156,777.3906 L759.0156,778.4844 C759.0156,780.1875 760.3125,781.2813 762.3594,781.2813 C763.125,781.2813 763.8125,781.1563 764.2344,780.8906 C764.4219,780.7969 764.4219,780.7969 764.875,780.3125 C765.0625,780.125 765.2656,780.0469 765.4844,780.0469 C765.9531,780.0469 766.3438,780.4375 766.3438,780.8906 C766.3438,781.2813 766.0156,781.7344 765.4375,782.1406 C764.6875,782.6875 763.5313,782.9844 762.3125,782.9844 C759.4219,782.9844 757.3125,781.0938 757.3125,778.5156 L757.3125,777.3906 C757.3125,774.6719 759.3125,772.5938 761.9375,772.5938 C762.8125,772.5938 763.4063,772.7344 764.3438,773.1719 Z "/><text fill="#000000" font-family="sans-serif" font-size="12" lengthAdjust="spacingAndGlyphs" textLength="84" x="776" y="781.6543">PriorityQueue</text><rect fill="#FFFFFF" height="15.9688" style="stroke: #000000; stroke-width: 1.0; stroke-dasharray: 2.0,2.0;" width="10" x="868" y="758.5"/><text fill="#000000" font-family="sans-serif" font-size="12" font-style="italic" lengthAdjust="spacingAndGlyphs" textLength="8" x="869" y="770.6387">E</text><line style="stroke: #A80036; stroke-width: 1.5;" x1="748" x2="874" y1="793.5" y2="793.5"/><line style="stroke: #A80036; stroke-width: 1.5;" x1="748" x2="874" y1="801.5" y2="801.5"/><!--class List--><rect fill="#FEFECE" filter="url(#f1529o5bzp3b6y)" height="124.8281" id="List" style="stroke: #A80036; stroke-width: 1.5;" width="252" x="802" y="429"/><ellipse cx="907.25" cy="445" fill="#B4A7E5" rx="11" ry="11" style="stroke: #A80036; stroke-width: 1.0;"/><path d="M908.2031,441.7813 L908.2031,448.2969 L909.9219,448.2969 C910.375,448.2969 910.5156,448.3281 910.6875,448.4531 C910.9219,448.625 911.0313,448.875 911.0313,449.1563 C911.0313,449.7188 910.6719,450 909.9219,450 L904.7813,450 C904.375,450 904.1719,449.9531 904.0156,449.8281 C903.7969,449.6719 903.6563,449.4063 903.6563,449.1563 C903.6563,448.8594 903.8125,448.5781 904.0625,448.4219 C904.2188,448.3125 904.3438,448.2969 904.7813,448.2969 L906.5,448.2969 L906.5,441.7813 L904.7813,441.7813 C904.3594,441.7813 904.1719,441.75 904.0156,441.6406 C903.7969,441.4688 903.6563,441.2188 903.6563,440.9375 C903.6563,440.6563 903.8125,440.3594 904.0625,440.2031 C904.2188,440.1094 904.3438,440.0938 904.7813,440.0938 L909.9219,440.0938 C910.375,440.0938 910.5156,440.125 910.6875,440.2344 C910.9219,440.4063 911.0313,440.6719 911.0313,440.9375 C911.0313,441.2344 910.8906,441.5156 910.625,441.6719 C910.5,441.75 910.3125,441.7813 909.9219,441.7813 Z "/><text fill="#000000" font-family="sans-serif" font-size="12" font-style="italic" lengthAdjust="spacingAndGlyphs" textLength="21" x="927.75" y="449.1543">List</text><rect fill="#FFFFFF" height="15.9688" style="stroke: #000000; stroke-width: 1.0; stroke-dasharray: 2.0,2.0;" width="10" x="1047" y="426"/><text fill="#000000" font-family="sans-serif" font-size="12" font-style="italic" lengthAdjust="spacingAndGlyphs" textLength="8" x="1048" y="438.1387">E</text><line style="stroke: #A80036; stroke-width: 1.5;" x1="803" x2="1053" y1="461" y2="461"/><line style="stroke: #A80036; stroke-width: 1.5;" x1="803" x2="1053" y1="469" y2="469"/><text fill="#000000" font-family="sans-serif" font-size="11" lengthAdjust="spacingAndGlyphs" textLength="116" x="808" y="483.2104">int indexOf(Object o)</text><text fill="#000000" font-family="sans-serif" font-size="11" lengthAdjust="spacingAndGlyphs" textLength="137" x="808" y="496.0151">int lastIndexOf(Object o)</text><text fill="#000000" font-family="sans-serif" font-size="11" lengthAdjust="spacingAndGlyphs" textLength="0" x="812" y="508.8198"/><text fill="#000000" font-family="sans-serif" font-size="11" lengthAdjust="spacingAndGlyphs" textLength="206" x="808" y="521.6245">ListIterator&lt;E&gt; listIterator(int index)</text><text fill="#000000" font-family="sans-serif" font-size="11" lengthAdjust="spacingAndGlyphs" textLength="0" x="812" y="534.4292"/><text fill="#000000" font-family="sans-serif" font-size="11" lengthAdjust="spacingAndGlyphs" textLength="240" x="808" y="547.2339">List&lt;E&gt; subList(int fromIndex, int toIndex)</text><!--class Set--><rect fill="#FEFECE" filter="url(#f1529o5bzp3b6y)" height="48" id="Set" style="stroke: #A80036; stroke-width: 1.5;" width="65" x="1249.5" y="467.5"/><ellipse cx="1264.5" cy="483.5" fill="#B4A7E5" rx="11" ry="11" style="stroke: #A80036; stroke-width: 1.0;"/><path d="M1265.4531,480.2813 L1265.4531,486.7969 L1267.1719,486.7969 C1267.625,486.7969 1267.7656,486.8281 1267.9375,486.9531 C1268.1719,487.125 1268.2813,487.375 1268.2813,487.6563 C1268.2813,488.2188 1267.9219,488.5 1267.1719,488.5 L1262.0313,488.5 C1261.625,488.5 1261.4219,488.4531 1261.2656,488.3281 C1261.0469,488.1719 1260.9063,487.9063 1260.9063,487.6563 C1260.9063,487.3594 1261.0625,487.0781 1261.3125,486.9219 C1261.4688,486.8125 1261.5938,486.7969 1262.0313,486.7969 L1263.75,486.7969 L1263.75,480.2813 L1262.0313,480.2813 C1261.6094,480.2813 1261.4219,480.25 1261.2656,480.1406 C1261.0469,479.9688 1260.9063,479.7188 1260.9063,479.4375 C1260.9063,479.1563 1261.0625,478.8594 1261.3125,478.7031 C1261.4688,478.6094 1261.5938,478.5938 1262.0313,478.5938 L1267.1719,478.5938 C1267.625,478.5938 1267.7656,478.625 1267.9375,478.7344 C1268.1719,478.9063 1268.2813,479.1719 1268.2813,479.4375 C1268.2813,479.7344 1268.1406,480.0156 1267.875,480.1719 C1267.75,480.25 1267.5625,480.2813 1267.1719,480.2813 Z "/><text fill="#000000" font-family="sans-serif" font-size="12" font-style="italic" lengthAdjust="spacingAndGlyphs" textLength="21" x="1278.5" y="487.6543">Set</text><rect fill="#FFFFFF" height="15.9688" style="stroke: #000000; stroke-width: 1.0; stroke-dasharray: 2.0,2.0;" width="10" x="1307.5" y="464.5"/><text fill="#000000" font-family="sans-serif" font-size="12" font-style="italic" lengthAdjust="spacingAndGlyphs" textLength="8" x="1308.5" y="476.6387">E</text><line style="stroke: #A80036; stroke-width: 1.5;" x1="1250.5" x2="1313.5" y1="499.5" y2="499.5"/><line style="stroke: #A80036; stroke-width: 1.5;" x1="1250.5" x2="1313.5" y1="507.5" y2="507.5"/><!--class ArrayList--><rect fill="#FEFECE" filter="url(#f1529o5bzp3b6y)" height="48" id="ArrayList" style="stroke: #A80036; stroke-width: 1.5;" width="97" x="1041.5" y="761.5"/><ellipse cx="1056.5" cy="777.5" fill="#ADD1B2" rx="11" ry="11" style="stroke: #A80036; stroke-width: 1.0;"/><path d="M1058.8438,773.1719 L1059.0156,773.25 C1059.2344,772.9375 1059.4375,772.8438 1059.7344,772.8438 C1060.0313,772.8438 1060.3125,772.9844 1060.4688,773.25 C1060.5625,773.4063 1060.5781,773.5313 1060.5781,773.9688 L1060.5781,775.3906 C1060.5781,775.8125 1060.5469,776 1060.4375,776.1563 C1060.2656,776.375 1060,776.5156 1059.7344,776.5156 C1059.5156,776.5156 1059.2813,776.4063 1059.1406,776.2656 C1059,776.1406 1058.9688,776.0156 1058.9063,775.6094 C1058.8125,775.2031 1058.6406,774.9844 1058.1563,774.7031 C1057.6875,774.4531 1057.0781,774.2969 1056.5,774.2969 C1054.7656,774.2969 1053.5156,775.6094 1053.5156,777.3906 L1053.5156,778.4844 C1053.5156,780.1875 1054.8125,781.2813 1056.8594,781.2813 C1057.625,781.2813 1058.3125,781.1563 1058.7344,780.8906 C1058.9219,780.7969 1058.9219,780.7969 1059.375,780.3125 C1059.5625,780.125 1059.7656,780.0469 1059.9844,780.0469 C1060.4531,780.0469 1060.8438,780.4375 1060.8438,780.8906 C1060.8438,781.2813 1060.5156,781.7344 1059.9375,782.1406 C1059.1875,782.6875 1058.0313,782.9844 1056.8125,782.9844 C1053.9219,782.9844 1051.8125,781.0938 1051.8125,778.5156 L1051.8125,777.3906 C1051.8125,774.6719 1053.8125,772.5938 1056.4375,772.5938 C1057.3125,772.5938 1057.9063,772.7344 1058.8438,773.1719 Z "/><text fill="#000000" font-family="sans-serif" font-size="12" lengthAdjust="spacingAndGlyphs" textLength="53" x="1070.5" y="781.6543">ArrayList</text><rect fill="#FFFFFF" height="15.9688" style="stroke: #000000; stroke-width: 1.0; stroke-dasharray: 2.0,2.0;" width="10" x="1131.5" y="758.5"/><text fill="#000000" font-family="sans-serif" font-size="12" font-style="italic" lengthAdjust="spacingAndGlyphs" textLength="8" x="1132.5" y="770.6387">E</text><line style="stroke: #A80036; stroke-width: 1.5;" x1="1042.5" x2="1137.5" y1="793.5" y2="793.5"/><line style="stroke: #A80036; stroke-width: 1.5;" x1="1042.5" x2="1137.5" y1="801.5" y2="801.5"/><!--class RandomAccess--><rect fill="#FEFECE" filter="url(#f1529o5bzp3b6y)" height="48" id="RandomAccess" style="stroke: #A80036; stroke-width: 1.5;" width="125" x="1089.5" y="467.5"/><ellipse cx="1104.5" cy="483.5" fill="#B4A7E5" rx="11" ry="11" style="stroke: #A80036; stroke-width: 1.0;"/><path d="M1105.4531,480.2813 L1105.4531,486.7969 L1107.1719,486.7969 C1107.625,486.7969 1107.7656,486.8281 1107.9375,486.9531 C1108.1719,487.125 1108.2813,487.375 1108.2813,487.6563 C1108.2813,488.2188 1107.9219,488.5 1107.1719,488.5 L1102.0313,488.5 C1101.625,488.5 1101.4219,488.4531 1101.2656,488.3281 C1101.0469,488.1719 1100.9063,487.9063 1100.9063,487.6563 C1100.9063,487.3594 1101.0625,487.0781 1101.3125,486.9219 C1101.4688,486.8125 1101.5938,486.7969 1102.0313,486.7969 L1103.75,486.7969 L1103.75,480.2813 L1102.0313,480.2813 C1101.6094,480.2813 1101.4219,480.25 1101.2656,480.1406 C1101.0469,479.9688 1100.9063,479.7188 1100.9063,479.4375 C1100.9063,479.1563 1101.0625,478.8594 1101.3125,478.7031 C1101.4688,478.6094 1101.5938,478.5938 1102.0313,478.5938 L1107.1719,478.5938 C1107.625,478.5938 1107.7656,478.625 1107.9375,478.7344 C1108.1719,478.9063 1108.2813,479.1719 1108.2813,479.4375 C1108.2813,479.7344 1108.1406,480.0156 1107.875,480.1719 C1107.75,480.25 1107.5625,480.2813 1107.1719,480.2813 Z "/><text fill="#000000" font-family="sans-serif" font-size="12" font-style="italic" lengthAdjust="spacingAndGlyphs" textLength="93" x="1118.5" y="487.6543">RandomAccess</text><line style="stroke: #A80036; stroke-width: 1.5;" x1="1090.5" x2="1213.5" y1="499.5" y2="499.5"/><line style="stroke: #A80036; stroke-width: 1.5;" x1="1090.5" x2="1213.5" y1="507.5" y2="507.5"/><!--class LinkedList--><rect fill="#FEFECE" filter="url(#f1529o5bzp3b6y)" height="48" id="LinkedList" style="stroke: #A80036; stroke-width: 1.5;" width="105" x="732.5" y="1042.5"/><ellipse cx="747.5" cy="1058.5" fill="#ADD1B2" rx="11" ry="11" style="stroke: #A80036; stroke-width: 1.0;"/><path d="M749.8438,1054.1719 L750.0156,1054.25 C750.2344,1053.9375 750.4375,1053.8438 750.7344,1053.8438 C751.0313,1053.8438 751.3125,1053.9844 751.4688,1054.25 C751.5625,1054.4063 751.5781,1054.5313 751.5781,1054.9688 L751.5781,1056.3906 C751.5781,1056.8125 751.5469,1057 751.4375,1057.1563 C751.2656,1057.375 751,1057.5156 750.7344,1057.5156 C750.5156,1057.5156 750.2813,1057.4063 750.1406,1057.2656 C750,1057.1406 749.9688,1057.0156 749.9063,1056.6094 C749.8125,1056.2031 749.6406,1055.9844 749.1563,1055.7031 C748.6875,1055.4531 748.0781,1055.2969 747.5,1055.2969 C745.7656,1055.2969 744.5156,1056.6094 744.5156,1058.3906 L744.5156,1059.4844 C744.5156,1061.1875 745.8125,1062.2813 747.8594,1062.2813 C748.625,1062.2813 749.3125,1062.1563 749.7344,1061.8906 C749.9219,1061.7969 749.9219,1061.7969 750.375,1061.3125 C750.5625,1061.125 750.7656,1061.0469 750.9844,1061.0469 C751.4531,1061.0469 751.8438,1061.4375 751.8438,1061.8906 C751.8438,1062.2813 751.5156,1062.7344 750.9375,1063.1406 C750.1875,1063.6875 749.0313,1063.9844 747.8125,1063.9844 C744.9219,1063.9844 742.8125,1062.0938 742.8125,1059.5156 L742.8125,1058.3906 C742.8125,1055.6719 744.8125,1053.5938 747.4375,1053.5938 C748.3125,1053.5938 748.9063,1053.7344 749.8438,1054.1719 Z "/><text fill="#000000" font-family="sans-serif" font-size="12" lengthAdjust="spacingAndGlyphs" textLength="61" x="761.5" y="1062.6543">LinkedList</text><rect fill="#FFFFFF" height="15.9688" style="stroke: #000000; stroke-width: 1.0; stroke-dasharray: 2.0,2.0;" width="10" x="830.5" y="1039.5"/><text fill="#000000" font-family="sans-serif" font-size="12" font-style="italic" lengthAdjust="spacingAndGlyphs" textLength="8" x="831.5" y="1051.6387">E</text><line style="stroke: #A80036; stroke-width: 1.5;" x1="733.5" x2="836.5" y1="1074.5" y2="1074.5"/><line style="stroke: #A80036; stroke-width: 1.5;" x1="733.5" x2="836.5" y1="1082.5" y2="1082.5"/><!--class HashSet--><rect fill="#FEFECE" filter="url(#f1529o5bzp3b6y)" height="48" id="HashSet" style="stroke: #A80036; stroke-width: 1.5;" width="97" x="1203.5" y="761.5"/><ellipse cx="1218.5" cy="777.5" fill="#ADD1B2" rx="11" ry="11" style="stroke: #A80036; stroke-width: 1.0;"/><path d="M1220.8438,773.1719 L1221.0156,773.25 C1221.2344,772.9375 1221.4375,772.8438 1221.7344,772.8438 C1222.0313,772.8438 1222.3125,772.9844 1222.4688,773.25 C1222.5625,773.4063 1222.5781,773.5313 1222.5781,773.9688 L1222.5781,775.3906 C1222.5781,775.8125 1222.5469,776 1222.4375,776.1563 C1222.2656,776.375 1222,776.5156 1221.7344,776.5156 C1221.5156,776.5156 1221.2813,776.4063 1221.1406,776.2656 C1221,776.1406 1220.9688,776.0156 1220.9063,775.6094 C1220.8125,775.2031 1220.6406,774.9844 1220.1563,774.7031 C1219.6875,774.4531 1219.0781,774.2969 1218.5,774.2969 C1216.7656,774.2969 1215.5156,775.6094 1215.5156,777.3906 L1215.5156,778.4844 C1215.5156,780.1875 1216.8125,781.2813 1218.8594,781.2813 C1219.625,781.2813 1220.3125,781.1563 1220.7344,780.8906 C1220.9219,780.7969 1220.9219,780.7969 1221.375,780.3125 C1221.5625,780.125 1221.7656,780.0469 1221.9844,780.0469 C1222.4531,780.0469 1222.8438,780.4375 1222.8438,780.8906 C1222.8438,781.2813 1222.5156,781.7344 1221.9375,782.1406 C1221.1875,782.6875 1220.0313,782.9844 1218.8125,782.9844 C1215.9219,782.9844 1213.8125,781.0938 1213.8125,778.5156 L1213.8125,777.3906 C1213.8125,774.6719 1215.8125,772.5938 1218.4375,772.5938 C1219.3125,772.5938 1219.9063,772.7344 1220.8438,773.1719 Z "/><text fill="#000000" font-family="sans-serif" font-size="12" lengthAdjust="spacingAndGlyphs" textLength="53" x="1232.5" y="781.6543">HashSet</text><rect fill="#FFFFFF" height="15.9688" style="stroke: #000000; stroke-width: 1.0; stroke-dasharray: 2.0,2.0;" width="10" x="1293.5" y="758.5"/><text fill="#000000" font-family="sans-serif" font-size="12" font-style="italic" lengthAdjust="spacingAndGlyphs" textLength="8" x="1294.5" y="770.6387">E</text><line style="stroke: #A80036; stroke-width: 1.5;" x1="1204.5" x2="1299.5" y1="793.5" y2="793.5"/><line style="stroke: #A80036; stroke-width: 1.5;" x1="1204.5" x2="1299.5" y1="801.5" y2="801.5"/><!--class SortedSet--><rect fill="#FEFECE" filter="url(#f1529o5bzp3b6y)" height="99.2188" id="SortedSet" style="stroke: #A80036; stroke-width: 1.5;" width="306" x="1336" y="736"/><ellipse cx="1447.25" cy="752" fill="#B4A7E5" rx="11" ry="11" style="stroke: #A80036; stroke-width: 1.0;"/><path d="M1448.2031,748.7813 L1448.2031,755.2969 L1449.9219,755.2969 C1450.375,755.2969 1450.5156,755.3281 1450.6875,755.4531 C1450.9219,755.625 1451.0313,755.875 1451.0313,756.1563 C1451.0313,756.7188 1450.6719,757 1449.9219,757 L1444.7813,757 C1444.375,757 1444.1719,756.9531 1444.0156,756.8281 C1443.7969,756.6719 1443.6563,756.4063 1443.6563,756.1563 C1443.6563,755.8594 1443.8125,755.5781 1444.0625,755.4219 C1444.2188,755.3125 1444.3438,755.2969 1444.7813,755.2969 L1446.5,755.2969 L1446.5,748.7813 L1444.7813,748.7813 C1444.3594,748.7813 1444.1719,748.75 1444.0156,748.6406 C1443.7969,748.4688 1443.6563,748.2188 1443.6563,747.9375 C1443.6563,747.6563 1443.8125,747.3594 1444.0625,747.2031 C1444.2188,747.1094 1444.3438,747.0938 1444.7813,747.0938 L1449.9219,747.0938 C1450.375,747.0938 1450.5156,747.125 1450.6875,747.2344 C1450.9219,747.4063 1451.0313,747.6719 1451.0313,747.9375 C1451.0313,748.2344 1450.8906,748.5156 1450.625,748.6719 C1450.5,748.75 1450.3125,748.7813 1449.9219,748.7813 Z "/><text fill="#000000" font-family="sans-serif" font-size="12" font-style="italic" lengthAdjust="spacingAndGlyphs" textLength="63" x="1467.75" y="756.1543">SortedSet</text><rect fill="#FFFFFF" height="15.9688" style="stroke: #000000; stroke-width: 1.0; stroke-dasharray: 2.0,2.0;" width="10" x="1635" y="733"/><text fill="#000000" font-family="sans-serif" font-size="12" font-style="italic" lengthAdjust="spacingAndGlyphs" textLength="8" x="1636" y="745.1387">E</text><line style="stroke: #A80036; stroke-width: 1.5;" x1="1337" x2="1641" y1="768" y2="768"/><line style="stroke: #A80036; stroke-width: 1.5;" x1="1337" x2="1641" y1="776" y2="776"/><text fill="#000000" font-family="sans-serif" font-size="11" lengthAdjust="spacingAndGlyphs" textLength="218" x="1342" y="790.2104">Comparator&lt;? super E&gt; comparator()</text><text fill="#000000" font-family="sans-serif" font-size="11" lengthAdjust="spacingAndGlyphs" textLength="294" x="1342" y="803.0151">SortedSet&lt;E&gt; subSet(E fromElement, E toElement)</text><text fill="#000000" font-family="sans-serif" font-size="11" lengthAdjust="spacingAndGlyphs" textLength="209" x="1342" y="815.8198">SortedSet&lt;E&gt; headSet(E toElement)</text><text fill="#000000" font-family="sans-serif" font-size="11" lengthAdjust="spacingAndGlyphs" textLength="214" x="1342" y="828.6245">SortedSet&lt;E&gt; tailSet(E fromElement)</text><!--class NavigableSet--><rect fill="#FEFECE" filter="url(#f1529o5bzp3b6y)" height="99.2188" id="NavigableSet" style="stroke: #A80036; stroke-width: 1.5;" width="126" x="1426" y="1017"/><ellipse cx="1441" cy="1033" fill="#B4A7E5" rx="11" ry="11" style="stroke: #A80036; stroke-width: 1.0;"/><path d="M1441.9531,1029.7813 L1441.9531,1036.2969 L1443.6719,1036.2969 C1444.125,1036.2969 1444.2656,1036.3281 1444.4375,1036.4531 C1444.6719,1036.625 1444.7813,1036.875 1444.7813,1037.1563 C1444.7813,1037.7188 1444.4219,1038 1443.6719,1038 L1438.5313,1038 C1438.125,1038 1437.9219,1037.9531 1437.7656,1037.8281 C1437.5469,1037.6719 1437.4063,1037.4063 1437.4063,1037.1563 C1437.4063,1036.8594 1437.5625,1036.5781 1437.8125,1036.4219 C1437.9688,1036.3125 1438.0938,1036.2969 1438.5313,1036.2969 L1440.25,1036.2969 L1440.25,1029.7813 L1438.5313,1029.7813 C1438.1094,1029.7813 1437.9219,1029.75 1437.7656,1029.6406 C1437.5469,1029.4688 1437.4063,1029.2188 1437.4063,1028.9375 C1437.4063,1028.6563 1437.5625,1028.3594 1437.8125,1028.2031 C1437.9688,1028.1094 1438.0938,1028.0938 1438.5313,1028.0938 L1443.6719,1028.0938 C1444.125,1028.0938 1444.2656,1028.125 1444.4375,1028.2344 C1444.6719,1028.4063 1444.7813,1028.6719 1444.7813,1028.9375 C1444.7813,1029.2344 1444.6406,1029.5156 1444.375,1029.6719 C1444.25,1029.75 1444.0625,1029.7813 1443.6719,1029.7813 Z "/><text fill="#000000" font-family="sans-serif" font-size="12" font-style="italic" lengthAdjust="spacingAndGlyphs" textLength="82" x="1455" y="1037.1543">NavigableSet</text><rect fill="#FFFFFF" height="15.9688" style="stroke: #000000; stroke-width: 1.0; stroke-dasharray: 2.0,2.0;" width="10" x="1545" y="1014"/><text fill="#000000" font-family="sans-serif" font-size="12" font-style="italic" lengthAdjust="spacingAndGlyphs" textLength="8" x="1546" y="1026.1387">E</text><line style="stroke: #A80036; stroke-width: 1.5;" x1="1427" x2="1551" y1="1049" y2="1049"/><line style="stroke: #A80036; stroke-width: 1.5;" x1="1427" x2="1551" y1="1057" y2="1057"/><text fill="#000000" font-family="sans-serif" font-size="11" lengthAdjust="spacingAndGlyphs" textLength="68" x="1432" y="1071.2104">E lower(E e)</text><text fill="#000000" font-family="sans-serif" font-size="11" lengthAdjust="spacingAndGlyphs" textLength="63" x="1432" y="1084.0151">E floor(E e)</text><text fill="#000000" font-family="sans-serif" font-size="11" lengthAdjust="spacingAndGlyphs" textLength="73" x="1432" y="1096.8198">E ceiling(E e)</text><text fill="#000000" font-family="sans-serif" font-size="11" lengthAdjust="spacingAndGlyphs" textLength="73" x="1432" y="1109.6245">E higher(E e)</text><!--class TreeSet--><rect fill="#FEFECE" filter="url(#f1529o5bzp3b6y)" height="48" id="TreeSet" style="stroke: #A80036; stroke-width: 1.5;" width="93" x="1442.5" y="1176"/><ellipse cx="1457.5" cy="1192" fill="#ADD1B2" rx="11" ry="11" style="stroke: #A80036; stroke-width: 1.0;"/><path d="M1459.8438,1187.6719 L1460.0156,1187.75 C1460.2344,1187.4375 1460.4375,1187.3438 1460.7344,1187.3438 C1461.0313,1187.3438 1461.3125,1187.4844 1461.4688,1187.75 C1461.5625,1187.9063 1461.5781,1188.0313 1461.5781,1188.4688 L1461.5781,1189.8906 C1461.5781,1190.3125 1461.5469,1190.5 1461.4375,1190.6563 C1461.2656,1190.875 1461,1191.0156 1460.7344,1191.0156 C1460.5156,1191.0156 1460.2813,1190.9063 1460.1406,1190.7656 C1460,1190.6406 1459.9688,1190.5156 1459.9063,1190.1094 C1459.8125,1189.7031 1459.6406,1189.4844 1459.1563,1189.2031 C1458.6875,1188.9531 1458.0781,1188.7969 1457.5,1188.7969 C1455.7656,1188.7969 1454.5156,1190.1094 1454.5156,1191.8906 L1454.5156,1192.9844 C1454.5156,1194.6875 1455.8125,1195.7813 1457.8594,1195.7813 C1458.625,1195.7813 1459.3125,1195.6563 1459.7344,1195.3906 C1459.9219,1195.2969 1459.9219,1195.2969 1460.375,1194.8125 C1460.5625,1194.625 1460.7656,1194.5469 1460.9844,1194.5469 C1461.4531,1194.5469 1461.8438,1194.9375 1461.8438,1195.3906 C1461.8438,1195.7813 1461.5156,1196.2344 1460.9375,1196.6406 C1460.1875,1197.1875 1459.0313,1197.4844 1457.8125,1197.4844 C1454.9219,1197.4844 1452.8125,1195.5938 1452.8125,1193.0156 L1452.8125,1191.8906 C1452.8125,1189.1719 1454.8125,1187.0938 1457.4375,1187.0938 C1458.3125,1187.0938 1458.9063,1187.2344 1459.8438,1187.6719 Z "/><text fill="#000000" font-family="sans-serif" font-size="12" lengthAdjust="spacingAndGlyphs" textLength="49" x="1471.5" y="1196.1543">TreeSet</text><rect fill="#FFFFFF" height="15.9688" style="stroke: #000000; stroke-width: 1.0; stroke-dasharray: 2.0,2.0;" width="10" x="1528.5" y="1173"/><text fill="#000000" font-family="sans-serif" font-size="12" font-style="italic" lengthAdjust="spacingAndGlyphs" textLength="8" x="1529.5" y="1185.1387">E</text><line style="stroke: #A80036; stroke-width: 1.5;" x1="1443.5" x2="1534.5" y1="1208" y2="1208"/><line style="stroke: #A80036; stroke-width: 1.5;" x1="1443.5" x2="1534.5" y1="1216" y2="1216"/><!--class LinkedHashSet--><rect fill="#FEFECE" filter="url(#f1529o5bzp3b6y)" height="48" id="LinkedHashSet" style="stroke: #A80036; stroke-width: 1.5;" width="137" x="1183.5" y="1042.5"/><ellipse cx="1198.5" cy="1058.5" fill="#ADD1B2" rx="11" ry="11" style="stroke: #A80036; stroke-width: 1.0;"/><path d="M1200.8438,1054.1719 L1201.0156,1054.25 C1201.2344,1053.9375 1201.4375,1053.8438 1201.7344,1053.8438 C1202.0313,1053.8438 1202.3125,1053.9844 1202.4688,1054.25 C1202.5625,1054.4063 1202.5781,1054.5313 1202.5781,1054.9688 L1202.5781,1056.3906 C1202.5781,1056.8125 1202.5469,1057 1202.4375,1057.1563 C1202.2656,1057.375 1202,1057.5156 1201.7344,1057.5156 C1201.5156,1057.5156 1201.2813,1057.4063 1201.1406,1057.2656 C1201,1057.1406 1200.9688,1057.0156 1200.9063,1056.6094 C1200.8125,1056.2031 1200.6406,1055.9844 1200.1563,1055.7031 C1199.6875,1055.4531 1199.0781,1055.2969 1198.5,1055.2969 C1196.7656,1055.2969 1195.5156,1056.6094 1195.5156,1058.3906 L1195.5156,1059.4844 C1195.5156,1061.1875 1196.8125,1062.2813 1198.8594,1062.2813 C1199.625,1062.2813 1200.3125,1062.1563 1200.7344,1061.8906 C1200.9219,1061.7969 1200.9219,1061.7969 1201.375,1061.3125 C1201.5625,1061.125 1201.7656,1061.0469 1201.9844,1061.0469 C1202.4531,1061.0469 1202.8438,1061.4375 1202.8438,1061.8906 C1202.8438,1062.2813 1202.5156,1062.7344 1201.9375,1063.1406 C1201.1875,1063.6875 1200.0313,1063.9844 1198.8125,1063.9844 C1195.9219,1063.9844 1193.8125,1062.0938 1193.8125,1059.5156 L1193.8125,1058.3906 C1193.8125,1055.6719 1195.8125,1053.5938 1198.4375,1053.5938 C1199.3125,1053.5938 1199.9063,1053.7344 1200.8438,1054.1719 Z "/><text fill="#000000" font-family="sans-serif" font-size="12" lengthAdjust="spacingAndGlyphs" textLength="93" x="1212.5" y="1062.6543">LinkedHashSet</text><rect fill="#FFFFFF" height="15.9688" style="stroke: #000000; stroke-width: 1.0; stroke-dasharray: 2.0,2.0;" width="10" x="1313.5" y="1039.5"/><text fill="#000000" font-family="sans-serif" font-size="12" font-style="italic" lengthAdjust="spacingAndGlyphs" textLength="8" x="1314.5" y="1051.6387">E</text><line style="stroke: #A80036; stroke-width: 1.5;" x1="1184.5" x2="1319.5" y1="1074.5" y2="1074.5"/><line style="stroke: #A80036; stroke-width: 1.5;" x1="1184.5" x2="1319.5" y1="1082.5" y2="1082.5"/><!--class SortedMap--><rect fill="#FEFECE" filter="url(#f1529o5bzp3b6y)" height="124.8281" id="SortedMap" style="stroke: #A80036; stroke-width: 1.5;" width="273" x="40.5" y="429"/><ellipse cx="126.75" cy="445" fill="#B4A7E5" rx="11" ry="11" style="stroke: #A80036; stroke-width: 1.0;"/><path d="M127.7031,441.7813 L127.7031,448.2969 L129.4219,448.2969 C129.875,448.2969 130.0156,448.3281 130.1875,448.4531 C130.4219,448.625 130.5313,448.875 130.5313,449.1563 C130.5313,449.7188 130.1719,450 129.4219,450 L124.2813,450 C123.875,450 123.6719,449.9531 123.5156,449.8281 C123.2969,449.6719 123.1563,449.4063 123.1563,449.1563 C123.1563,448.8594 123.3125,448.5781 123.5625,448.4219 C123.7188,448.3125 123.8438,448.2969 124.2813,448.2969 L126,448.2969 L126,441.7813 L124.2813,441.7813 C123.8594,441.7813 123.6719,441.75 123.5156,441.6406 C123.2969,441.4688 123.1563,441.2188 123.1563,440.9375 C123.1563,440.6563 123.3125,440.3594 123.5625,440.2031 C123.7188,440.1094 123.8438,440.0938 124.2813,440.0938 L129.4219,440.0938 C129.875,440.0938 130.0156,440.125 130.1875,440.2344 C130.4219,440.4063 130.5313,440.6719 130.5313,440.9375 C130.5313,441.2344 130.3906,441.5156 130.125,441.6719 C130,441.75 129.8125,441.7813 129.4219,441.7813 Z "/><text fill="#000000" font-family="sans-serif" font-size="12" font-style="italic" lengthAdjust="spacingAndGlyphs" textLength="68" x="147.25" y="449.1543">SortedMap</text><rect fill="#FFFFFF" height="15.9688" style="stroke: #000000; stroke-width: 1.0; stroke-dasharray: 2.0,2.0;" width="22" x="294.5" y="426"/><text fill="#000000" font-family="sans-serif" font-size="12" font-style="italic" lengthAdjust="spacingAndGlyphs" textLength="20" x="295.5" y="438.1387">K,V</text><line style="stroke: #A80036; stroke-width: 1.5;" x1="41.5" x2="312.5" y1="461" y2="461"/><line style="stroke: #A80036; stroke-width: 1.5;" x1="41.5" x2="312.5" y1="469" y2="469"/><text fill="#000000" font-family="sans-serif" font-size="11" lengthAdjust="spacingAndGlyphs" textLength="218" x="46.5" y="483.2104">Comparator&lt;? super K&gt; comparator()</text><text fill="#000000" font-family="sans-serif" font-size="11" lengthAdjust="spacingAndGlyphs" textLength="0" x="50.5" y="496.0151"/><text fill="#000000" font-family="sans-serif" font-size="11" lengthAdjust="spacingAndGlyphs" textLength="261" x="46.5" y="508.8198">SortedMap&lt;K,V&gt; subMap(K fromKey, K toKey)</text><text fill="#000000" font-family="sans-serif" font-size="11" lengthAdjust="spacingAndGlyphs" textLength="0" x="50.5" y="521.6245"/><text fill="#000000" font-family="sans-serif" font-size="11" lengthAdjust="spacingAndGlyphs" textLength="202" x="46.5" y="534.4292">SortedMap&lt;K,V&gt; headMap(K toKey)</text><text fill="#000000" font-family="sans-serif" font-size="11" lengthAdjust="spacingAndGlyphs" textLength="207" x="46.5" y="547.2339">SortedMap&lt;K,V&gt; tailMap(K fromKey)</text><!--class NavigableMap--><rect fill="#FEFECE" filter="url(#f1529o5bzp3b6y)" height="342.5078" id="NavigableMap" style="stroke: #A80036; stroke-width: 1.5;" width="342" x="6" y="614"/><ellipse cx="117.25" cy="630" fill="#B4A7E5" rx="11" ry="11" style="stroke: #A80036; stroke-width: 1.0;"/><path d="M118.2031,626.7813 L118.2031,633.2969 L119.9219,633.2969 C120.375,633.2969 120.5156,633.3281 120.6875,633.4531 C120.9219,633.625 121.0313,633.875 121.0313,634.1563 C121.0313,634.7188 120.6719,635 119.9219,635 L114.7813,635 C114.375,635 114.1719,634.9531 114.0156,634.8281 C113.7969,634.6719 113.6563,634.4063 113.6563,634.1563 C113.6563,633.8594 113.8125,633.5781 114.0625,633.4219 C114.2188,633.3125 114.3438,633.2969 114.7813,633.2969 L116.5,633.2969 L116.5,626.7813 L114.7813,626.7813 C114.3594,626.7813 114.1719,626.75 114.0156,626.6406 C113.7969,626.4688 113.6563,626.2188 113.6563,625.9375 C113.6563,625.6563 113.8125,625.3594 114.0625,625.2031 C114.2188,625.1094 114.3438,625.0938 114.7813,625.0938 L119.9219,625.0938 C120.375,625.0938 120.5156,625.125 120.6875,625.2344 C120.9219,625.4063 121.0313,625.6719 121.0313,625.9375 C121.0313,626.2344 120.8906,626.5156 120.625,626.6719 C120.5,626.75 120.3125,626.7813 119.9219,626.7813 Z "/><text fill="#000000" font-family="sans-serif" font-size="12" font-style="italic" lengthAdjust="spacingAndGlyphs" textLength="87" x="137.75" y="634.1543">NavigableMap</text><rect fill="#FFFFFF" height="15.9688" style="stroke: #000000; stroke-width: 1.0; stroke-dasharray: 2.0,2.0;" width="22" x="329" y="611"/><text fill="#000000" font-family="sans-serif" font-size="12" font-style="italic" lengthAdjust="spacingAndGlyphs" textLength="20" x="330" y="623.1387">K,V</text><line style="stroke: #A80036; stroke-width: 1.5;" x1="7" x2="347" y1="646" y2="646"/><line style="stroke: #A80036; stroke-width: 1.5;" x1="7" x2="347" y1="654" y2="654"/><text fill="#000000" font-family="sans-serif" font-size="11" lengthAdjust="spacingAndGlyphs" textLength="194" x="12" y="668.2104">Map.Entry&lt;K,V&gt; lowerEntry(K key)</text><text fill="#000000" font-family="sans-serif" font-size="11" lengthAdjust="spacingAndGlyphs" textLength="100" x="12" y="681.0151">K lowerKey(K key)</text><text fill="#000000" font-family="sans-serif" font-size="11" lengthAdjust="spacingAndGlyphs" textLength="189" x="12" y="693.8198">Map.Entry&lt;K,V&gt; floorEntry(K key)</text><text fill="#000000" font-family="sans-serif" font-size="11" lengthAdjust="spacingAndGlyphs" textLength="95" x="12" y="706.6245">K floorKey(K key)</text><text fill="#000000" font-family="sans-serif" font-size="11" lengthAdjust="spacingAndGlyphs" textLength="199" x="12" y="719.4292">Map.Entry&lt;K,V&gt; ceilingEntry(K key)</text><text fill="#000000" font-family="sans-serif" font-size="11" lengthAdjust="spacingAndGlyphs" textLength="105" x="12" y="732.2339">K ceilingKey(K key)</text><text fill="#000000" font-family="sans-serif" font-size="11" lengthAdjust="spacingAndGlyphs" textLength="199" x="12" y="745.0386">Map.Entry&lt;K,V&gt; higherEntry(K key)</text><text fill="#000000" font-family="sans-serif" font-size="11" lengthAdjust="spacingAndGlyphs" textLength="105" x="12" y="757.8433">K higherKey(K key)</text><text fill="#000000" font-family="sans-serif" font-size="11" lengthAdjust="spacingAndGlyphs" textLength="156" x="12" y="770.6479">Map.Entry&lt;K,V&gt; firstEntry()</text><text fill="#000000" font-family="sans-serif" font-size="11" lengthAdjust="spacingAndGlyphs" textLength="154" x="12" y="783.4526">Map.Entry&lt;K,V&gt; lastEntry()</text><text fill="#000000" font-family="sans-serif" font-size="11" lengthAdjust="spacingAndGlyphs" textLength="178" x="12" y="796.2573">Map.Entry&lt;K,V&gt; pollFirstEntry()</text><text fill="#000000" font-family="sans-serif" font-size="11" lengthAdjust="spacingAndGlyphs" textLength="177" x="12" y="809.062">Map.Entry&lt;K,V&gt; pollLastEntry()</text><text fill="#000000" font-family="sans-serif" font-size="11" lengthAdjust="spacingAndGlyphs" textLength="0" x="16" y="821.8667"/><text fill="#000000" font-family="sans-serif" font-size="11" lengthAdjust="spacingAndGlyphs" textLength="214" x="12" y="834.6714">NavigableMap&lt;K,V&gt; descendingMap()</text><text fill="#000000" font-family="sans-serif" font-size="11" lengthAdjust="spacingAndGlyphs" textLength="204" x="12" y="847.4761">NavigableSet&lt;K&gt; navigableKeySet()</text><text fill="#000000" font-family="sans-serif" font-size="11" lengthAdjust="spacingAndGlyphs" textLength="215" x="12" y="860.2808">NavigableSet&lt;K&gt; descendingKeySet()</text><text fill="#000000" font-family="sans-serif" font-size="11" lengthAdjust="spacingAndGlyphs" textLength="0" x="16" y="873.0854"/><text fill="#000000" font-family="sans-serif" font-size="11" lengthAdjust="spacingAndGlyphs" textLength="261" x="12" y="885.8901">SortedMap&lt;K,V&gt; subMap(K fromKey, K toKey)</text><text fill="#000000" font-family="sans-serif" font-size="11" lengthAdjust="spacingAndGlyphs" textLength="325" x="12" y="898.6948">NavigableMap&lt;K,V&gt; headMap(K toKey, boolean inclusive)</text><text fill="#000000" font-family="sans-serif" font-size="11" lengthAdjust="spacingAndGlyphs" textLength="202" x="12" y="911.4995">SortedMap&lt;K,V&gt; headMap(K toKey)</text><text fill="#000000" font-family="sans-serif" font-size="11" lengthAdjust="spacingAndGlyphs" textLength="325" x="12" y="924.3042">NavigableMap&lt;K,V&gt; headMap(K toKey, boolean inclusive)</text><text fill="#000000" font-family="sans-serif" font-size="11" lengthAdjust="spacingAndGlyphs" textLength="207" x="12" y="937.1089">SortedMap&lt;K,V&gt; tailMap(K fromKey)</text><text fill="#000000" font-family="sans-serif" font-size="11" lengthAdjust="spacingAndGlyphs" textLength="330" x="12" y="949.9136">NavigableMap&lt;K,V&gt; tailMap(K fromKey, boolean inclusive)</text><!--class HashMap--><rect fill="#FEFECE" filter="url(#f1529o5bzp3b6y)" height="48" id="HashMap" style="stroke: #A80036; stroke-width: 1.5;" width="114" x="349" y="467.5"/><ellipse cx="364" cy="483.5" fill="#ADD1B2" rx="11" ry="11" style="stroke: #A80036; stroke-width: 1.0;"/><path d="M366.3438,479.1719 L366.5156,479.25 C366.7344,478.9375 366.9375,478.8438 367.2344,478.8438 C367.5313,478.8438 367.8125,478.9844 367.9688,479.25 C368.0625,479.4063 368.0781,479.5313 368.0781,479.9688 L368.0781,481.3906 C368.0781,481.8125 368.0469,482 367.9375,482.1563 C367.7656,482.375 367.5,482.5156 367.2344,482.5156 C367.0156,482.5156 366.7813,482.4063 366.6406,482.2656 C366.5,482.1406 366.4688,482.0156 366.4063,481.6094 C366.3125,481.2031 366.1406,480.9844 365.6563,480.7031 C365.1875,480.4531 364.5781,480.2969 364,480.2969 C362.2656,480.2969 361.0156,481.6094 361.0156,483.3906 L361.0156,484.4844 C361.0156,486.1875 362.3125,487.2813 364.3594,487.2813 C365.125,487.2813 365.8125,487.1563 366.2344,486.8906 C366.4219,486.7969 366.4219,486.7969 366.875,486.3125 C367.0625,486.125 367.2656,486.0469 367.4844,486.0469 C367.9531,486.0469 368.3438,486.4375 368.3438,486.8906 C368.3438,487.2813 368.0156,487.7344 367.4375,488.1406 C366.6875,488.6875 365.5313,488.9844 364.3125,488.9844 C361.4219,488.9844 359.3125,487.0938 359.3125,484.5156 L359.3125,483.3906 C359.3125,480.6719 361.3125,478.5938 363.9375,478.5938 C364.8125,478.5938 365.4063,478.7344 366.3438,479.1719 Z "/><text fill="#000000" font-family="sans-serif" font-size="12" lengthAdjust="spacingAndGlyphs" textLength="58" x="378" y="487.6543">HashMap</text><rect fill="#FFFFFF" height="15.9688" style="stroke: #000000; stroke-width: 1.0; stroke-dasharray: 2.0,2.0;" width="22" x="444" y="464.5"/><text fill="#000000" font-family="sans-serif" font-size="12" font-style="italic" lengthAdjust="spacingAndGlyphs" textLength="20" x="445" y="476.6387">K,V</text><line style="stroke: #A80036; stroke-width: 1.5;" x1="350" x2="462" y1="499.5" y2="499.5"/><line style="stroke: #A80036; stroke-width: 1.5;" x1="350" x2="462" y1="507.5" y2="507.5"/><!--class TreeMap--><rect fill="#FEFECE" filter="url(#f1529o5bzp3b6y)" height="48" id="TreeMap" style="stroke: #A80036; stroke-width: 1.5;" width="110" x="122" y="1042.5"/><ellipse cx="137" cy="1058.5" fill="#ADD1B2" rx="11" ry="11" style="stroke: #A80036; stroke-width: 1.0;"/><path d="M139.3438,1054.1719 L139.5156,1054.25 C139.7344,1053.9375 139.9375,1053.8438 140.2344,1053.8438 C140.5313,1053.8438 140.8125,1053.9844 140.9688,1054.25 C141.0625,1054.4063 141.0781,1054.5313 141.0781,1054.9688 L141.0781,1056.3906 C141.0781,1056.8125 141.0469,1057 140.9375,1057.1563 C140.7656,1057.375 140.5,1057.5156 140.2344,1057.5156 C140.0156,1057.5156 139.7813,1057.4063 139.6406,1057.2656 C139.5,1057.1406 139.4688,1057.0156 139.4063,1056.6094 C139.3125,1056.2031 139.1406,1055.9844 138.6563,1055.7031 C138.1875,1055.4531 137.5781,1055.2969 137,1055.2969 C135.2656,1055.2969 134.0156,1056.6094 134.0156,1058.3906 L134.0156,1059.4844 C134.0156,1061.1875 135.3125,1062.2813 137.3594,1062.2813 C138.125,1062.2813 138.8125,1062.1563 139.2344,1061.8906 C139.4219,1061.7969 139.4219,1061.7969 139.875,1061.3125 C140.0625,1061.125 140.2656,1061.0469 140.4844,1061.0469 C140.9531,1061.0469 141.3438,1061.4375 141.3438,1061.8906 C141.3438,1062.2813 141.0156,1062.7344 140.4375,1063.1406 C139.6875,1063.6875 138.5313,1063.9844 137.3125,1063.9844 C134.4219,1063.9844 132.3125,1062.0938 132.3125,1059.5156 L132.3125,1058.3906 C132.3125,1055.6719 134.3125,1053.5938 136.9375,1053.5938 C137.8125,1053.5938 138.4063,1053.7344 139.3438,1054.1719 Z "/><text fill="#000000" font-family="sans-serif" font-size="12" lengthAdjust="spacingAndGlyphs" textLength="54" x="151" y="1062.6543">TreeMap</text><rect fill="#FFFFFF" height="15.9688" style="stroke: #000000; stroke-width: 1.0; stroke-dasharray: 2.0,2.0;" width="22" x="213" y="1039.5"/><text fill="#000000" font-family="sans-serif" font-size="12" font-style="italic" lengthAdjust="spacingAndGlyphs" textLength="20" x="214" y="1051.6387">K,V</text><line style="stroke: #A80036; stroke-width: 1.5;" x1="123" x2="231" y1="1074.5" y2="1074.5"/><line style="stroke: #A80036; stroke-width: 1.5;" x1="123" x2="231" y1="1082.5" y2="1082.5"/><!--class Hashtable--><rect fill="#FEFECE" filter="url(#f1529o5bzp3b6y)" height="48" id="Hashtable" style="stroke: #A80036; stroke-width: 1.5;" width="120" x="498" y="467.5"/><ellipse cx="513" cy="483.5" fill="#ADD1B2" rx="11" ry="11" style="stroke: #A80036; stroke-width: 1.0;"/><path d="M515.3438,479.1719 L515.5156,479.25 C515.7344,478.9375 515.9375,478.8438 516.2344,478.8438 C516.5313,478.8438 516.8125,478.9844 516.9688,479.25 C517.0625,479.4063 517.0781,479.5313 517.0781,479.9688 L517.0781,481.3906 C517.0781,481.8125 517.0469,482 516.9375,482.1563 C516.7656,482.375 516.5,482.5156 516.2344,482.5156 C516.0156,482.5156 515.7813,482.4063 515.6406,482.2656 C515.5,482.1406 515.4688,482.0156 515.4063,481.6094 C515.3125,481.2031 515.1406,480.9844 514.6563,480.7031 C514.1875,480.4531 513.5781,480.2969 513,480.2969 C511.2656,480.2969 510.0156,481.6094 510.0156,483.3906 L510.0156,484.4844 C510.0156,486.1875 511.3125,487.2813 513.3594,487.2813 C514.125,487.2813 514.8125,487.1563 515.2344,486.8906 C515.4219,486.7969 515.4219,486.7969 515.875,486.3125 C516.0625,486.125 516.2656,486.0469 516.4844,486.0469 C516.9531,486.0469 517.3438,486.4375 517.3438,486.8906 C517.3438,487.2813 517.0156,487.7344 516.4375,488.1406 C515.6875,488.6875 514.5313,488.9844 513.3125,488.9844 C510.4219,488.9844 508.3125,487.0938 508.3125,484.5156 L508.3125,483.3906 C508.3125,480.6719 510.3125,478.5938 512.9375,478.5938 C513.8125,478.5938 514.4063,478.7344 515.3438,479.1719 Z "/><text fill="#000000" font-family="sans-serif" font-size="12" lengthAdjust="spacingAndGlyphs" textLength="64" x="527" y="487.6543">Hashtable</text><rect fill="#FFFFFF" height="15.9688" style="stroke: #000000; stroke-width: 1.0; stroke-dasharray: 2.0,2.0;" width="22" x="599" y="464.5"/><text fill="#000000" font-family="sans-serif" font-size="12" font-style="italic" lengthAdjust="spacingAndGlyphs" textLength="20" x="600" y="476.6387">K,V</text><line style="stroke: #A80036; stroke-width: 1.5;" x1="499" x2="617" y1="499.5" y2="499.5"/><line style="stroke: #A80036; stroke-width: 1.5;" x1="499" x2="617" y1="507.5" y2="507.5"/><!--link Iterable to Collection--><path d="M819,89.51 C819,101.63 819,115.11 819,128.94 " fill="none" id="Iterable-Collection" style="stroke: #A80036; stroke-width: 1.0;"/><polygon fill="none" points="812,89.37,819,69.37,826,89.37,812,89.37" style="stroke: #A80036; stroke-width: 1.0;"/><!--link Map to Collection--><path d="M546.334,249 C590.765,249 635.196,249 679.628,249 " fill="none" id="Map-Collection" style="stroke: #A80036; stroke-width: 1.0;"/><polygon fill="#A80036" points="692.785,249,686.785,245,680.785,249,686.785,253,692.785,249" style="stroke: #A80036; stroke-width: 1.0;"/><!--link Collection to Queue--><path d="M756.661,387.547 C747.853,406.98 739.325,425.797 732.021,441.912 " fill="none" id="Collection-Queue" style="stroke: #A80036; stroke-width: 1.0;"/><polygon fill="none" points="750.347,384.52,764.979,369.193,763.099,390.299,750.347,384.52" style="stroke: #A80036; stroke-width: 1.0;"/><!--link Queue to Deque--><path d="M694.118,560.698 C685.554,597.474 674.823,643.555 665.327,684.329 " fill="none" id="Queue-Deque" style="stroke: #A80036; stroke-width: 1.0;"/><polygon fill="none" points="687.341,558.937,698.695,541.046,700.976,562.112,687.341,558.937" style="stroke: #A80036; stroke-width: 1.0;"/><!--link Queue to PriorityQueue--><path d="M733.377,560.084 C755.738,624.734 788.189,718.551 803.04,761.488 " fill="none" id="Queue-PriorityQueue" style="stroke: #A80036; stroke-width: 1.0;"/><polygon fill="none" points="726.714,562.235,726.791,541.046,739.945,557.659,726.714,562.235" style="stroke: #A80036; stroke-width: 1.0;"/><!--link Collection to List--><path d="M881.341,387.55 C887.867,401.949 894.24,416.011 900.075,428.886 " fill="none" id="Collection-List" style="stroke: #A80036; stroke-width: 1.0;"/><polygon fill="none" points="874.901,390.299,873.021,369.193,887.653,384.52,874.901,390.299" style="stroke: #A80036; stroke-width: 1.0;"/><!--link Collection to Set--><path d="M964.303,293.683 C1047.87,323.323 1151.83,368.237 1232,429 C1245.93,439.556 1258.34,454.774 1267.32,467.431 " fill="none" id="Collection-Set" style="stroke: #A80036; stroke-width: 1.0;"/><polygon fill="none" points="961.762,300.211,945.167,287.034,966.357,286.986,961.762,300.211" style="stroke: #A80036; stroke-width: 1.0;"/><!--link List to ArrayList--><path d="M972.005,571.818 C1007.33,635.497 1054.62,720.732 1077.09,761.237 " fill="none" id="List-ArrayList" style="stroke: #A80036; stroke-width: 1.0; stroke-dasharray: 7.0,7.0;"/><polygon fill="none" points="965.74,574.954,962.158,554.069,977.982,568.162,965.74,574.954" style="stroke: #A80036; stroke-width: 1.0;"/><!--link RandomAccess to ArrayList--><path d="M1142.81,535.768 C1129.49,598.525 1105.26,712.624 1094.91,761.392 " fill="none" id="RandomAccess-ArrayList" style="stroke: #A80036; stroke-width: 1.0; stroke-dasharray: 7.0,7.0;"/><polygon fill="none" points="1136.03,534.012,1147.03,515.902,1149.72,536.92,1136.03,534.012" style="stroke: #A80036; stroke-width: 1.0;"/><!--link List to LinkedList--><path d="M938.026,574.125 C946.246,670.305 948.675,832.733 892,957 C875.862,992.384 842.977,1022.907 817.899,1042.485 " fill="none" id="List-LinkedList" style="stroke: #A80036; stroke-width: 1.0; stroke-dasharray: 7.0,7.0;"/><polygon fill="none" points="931.043,574.631,936.144,554.064,944.982,573.323,931.043,574.631" style="stroke: #A80036; stroke-width: 1.0;"/><!--link Deque to LinkedList--><path d="M702.092,904.443 C711.098,922.067 720.283,940.015 729,957 C744.098,986.421 761.591,1020.275 772.952,1042.235 " fill="none" id="Deque-LinkedList" style="stroke: #A80036; stroke-width: 1.0; stroke-dasharray: 7.0,7.0;"/><polygon fill="none" points="695.849,907.609,692.986,886.613,708.317,901.241,695.849,907.609" style="stroke: #A80036; stroke-width: 1.0;"/><!--link Set to HashSet--><path d="M1277.51,536.18 C1271.06,599.023 1259.37,712.731 1254.37,761.392 " fill="none" id="Set-HashSet" style="stroke: #A80036; stroke-width: 1.0; stroke-dasharray: 7.0,7.0;"/><polygon fill="none" points="1270.59,535.082,1279.6,515.902,1284.51,536.513,1270.59,535.082" style="stroke: #A80036; stroke-width: 1.0;"/><!--link Set to SortedSet--><path d="M1310.37,532.526 C1347.94,585.521 1414.14,678.9 1454.54,735.888 " fill="none" id="Set-SortedSet" style="stroke: #A80036; stroke-width: 1.0;"/><polygon fill="none" points="1304.45,536.266,1298.59,515.902,1315.87,528.17,1304.45,536.266" style="stroke: #A80036; stroke-width: 1.0;"/><!--link SortedSet to NavigableSet--><path d="M1489,855.143 C1489,905.358 1489,972.251 1489,1016.992 " fill="none" id="SortedSet-NavigableSet" style="stroke: #A80036; stroke-width: 1.0;"/><polygon fill="none" points="1482,855.098,1489,835.098,1496,855.098,1482,855.098" style="stroke: #A80036; stroke-width: 1.0;"/><!--link NavigableSet to TreeSet--><path d="M1489,1136.2257 C1489,1150.5804 1489,1164.7456 1489,1175.9769 " fill="none" id="NavigableSet-TreeSet" style="stroke: #A80036; stroke-width: 1.0; stroke-dasharray: 7.0,7.0;"/><polygon fill="none" points="1482,1136.0922,1489,1116.092,1496,1136.0921,1482,1136.0922" style="stroke: #A80036; stroke-width: 1.0;"/><!--link HashSet to LinkedHashSet--><path d="M1252,829.971 C1252,889.935 1252,995.89 1252,1042.455 " fill="none" id="HashSet-LinkedHashSet" style="stroke: #A80036; stroke-width: 1.0;"/><polygon fill="none" points="1245,829.808,1252,809.808,1259,829.807,1245,829.808" style="stroke: #A80036; stroke-width: 1.0;"/><!--link Map to SortedMap--><path d="M298.322,364.733 C276.964,386.873 255.366,409.263 236.431,428.892 " fill="none" id="Map-SortedMap" style="stroke: #A80036; stroke-width: 1.0;"/><polygon fill="none" points="293.368,359.786,312.291,350.252,303.444,369.506,293.368,359.786" style="stroke: #A80036; stroke-width: 1.0;"/><!--link SortedMap to NavigableMap--><path d="M177,574.383 C177,586.95 177,600.307 177,613.959 " fill="none" id="SortedMap-NavigableMap" style="stroke: #A80036; stroke-width: 1.0;"/><polygon fill="none" points="170,574.069,177,554.069,184,574.069,170,574.069" style="stroke: #A80036; stroke-width: 1.0;"/><!--link Map to HashMap--><path d="M407.499,370.346 C407.039,407.209 406.579,444.06 406.293,467.042 " fill="none" id="Map-HashMap" style="stroke: #A80036; stroke-width: 1.0; stroke-dasharray: 7.0,7.0;"/><polygon fill="none" points="400.5,370.163,407.749,350.252,414.499,370.338,400.5,370.163" style="stroke: #A80036; stroke-width: 1.0;"/><!--link NavigableMap to TreeMap--><path d="M177,977.387 C177,1003.143 177,1026.182 177,1042.236 " fill="none" id="NavigableMap-TreeMap" style="stroke: #A80036; stroke-width: 1.0; stroke-dasharray: 7.0,7.0;"/><polygon fill="none" points="170,977.232,177,957.232,184,977.232,170,977.232" style="stroke: #A80036; stroke-width: 1.0;"/><!--link Map to Hashtable--><path d="M481.661,367.281 C505.126,405.156 528.834,443.423 543.467,467.042 " fill="none" id="Map-Hashtable" style="stroke: #A80036; stroke-width: 1.0; stroke-dasharray: 7.0,7.0;"/><polygon fill="none" points="475.693,370.94,471.11,350.252,487.594,363.567,475.693,370.94" style="stroke: #A80036; stroke-width: 1.0;"/><!--
@startuml
interface Iterable<T> {

    Iterator<T> iterator()

}

interface Map<K,V> {

    int size()
    boolean isEmpty()
    boolean containsKey(Object key)
    boolean containsValue(Object value)
    V get(Object key)
    V put(K key, V value)
    V remove(Object key)
    void putAll(Map<? extends K, ? extends V> m)
    void clear()
    Set<K> keySet()
    Collection<V> values()
    Set<Map.Entry<K, V>> entrySet()
}

interface Collection<E> extends Iterable {

    int size()

    Object[] toArray()
    <T> T[] toArray(T[] a)

    boolean add(E e)
    boolean addAll(Collection<? extends E> c)
    boolean remove(Object o)
    void clear()

    boolean retainAll(Collection<?> c)

    boolean isEmpty()
    boolean contains(Object o)
    boolean containsAll(Collection<?> c)
}



Map -* Collection

interface Queue<E> extends Collection {

    boolean offer(E e)
    E poll()
    E element()
    E peek()
}

interface Deque<E> extends Queue {

    void addFirst(E e)
    void addLast(E e)
    boolean offerFirst(E e)
    boolean offerLast(E e)
    E removeFirst()
    E removeLast()
    E pollFirst()
    E pollLast()
    E getFirst()
    E getLast()
    E peekFirst()
    E peekLast()
}

class PriorityQueue<E> extends Queue

interface List<E> extends Collection {

    int indexOf(Object o)
    int lastIndexOf(Object o)

    ListIterator<E> listIterator(int index)

    List<E> subList(int fromIndex, int toIndex)
}

interface Set<E> extends Collection


class ArrayList<E> implements List, RandomAccess

class LinkedList<E> implements List, Deque


class HashSet<E> implements Set

interface SortedSet<E> extends Set {
    Comparator<? super E> comparator()
    SortedSet<E> subSet(E fromElement, E toElement)
    SortedSet<E> headSet(E toElement)
    SortedSet<E> tailSet(E fromElement)
}

interface NavigableSet<E> extends SortedSet {
    E lower(E e)
    E floor(E e)
    E ceiling(E e)
    E higher(E e)
}



class TreeSet<E> implements NavigableSet

class LinkedHashSet<E> extends HashSet

interface SortedMap<K,V> extends Map {

    Comparator<? super K> comparator()

    SortedMap<K,V> subMap(K fromKey, K toKey)

    SortedMap<K,V> headMap(K toKey)
    SortedMap<K,V> tailMap(K fromKey)
}

interface NavigableMap<K,V> extends SortedMap {

    Map.Entry<K,V> lowerEntry(K key)
    K lowerKey(K key)
    Map.Entry<K,V> floorEntry(K key)
    K floorKey(K key)
    Map.Entry<K,V> ceilingEntry(K key)
    K ceilingKey(K key)
    Map.Entry<K,V> higherEntry(K key)
    K higherKey(K key)
    Map.Entry<K,V> firstEntry()
    Map.Entry<K,V> lastEntry()
    Map.Entry<K,V> pollFirstEntry()
    Map.Entry<K,V> pollLastEntry()

    NavigableMap<K,V> descendingMap()
    NavigableSet<K> navigableKeySet()
    NavigableSet<K> descendingKeySet()

    SortedMap<K,V> subMap(K fromKey, K toKey)
    NavigableMap<K,V> headMap(K toKey, boolean inclusive)
    SortedMap<K,V> headMap(K toKey)
    NavigableMap<K,V> headMap(K toKey, boolean inclusive)
    SortedMap<K,V> tailMap(K fromKey)
    NavigableMap<K,V> tailMap(K fromKey, boolean inclusive)
}

class HashMap<K,V> implements Map

class TreeMap<K,V> implements NavigableMap

class Hashtable<K,V> implements Map
@enduml

PlantUML version 1.2019.05(Sat Apr 20 16:45:36 UTC 2019)
(GPL source distribution)
Java Runtime: Java(TM) SE Runtime Environment
JVM: Java HotSpot(TM) 64-Bit Server VM
Java Version: 1.7.0_25-b15
Operating System: Linux
Default Encoding: UTF-8
Language: en
Country: US
--></g></svg>