<?xml version="1.0" encoding="UTF-8" standalone="no"?><svg xmlns="http://www.w3.org/2000/svg" xmlns:xlink="http://www.w3.org/1999/xlink" contentScriptType="application/ecmascript" contentStyleType="text/css" height="1312px" preserveAspectRatio="none" style="width:1620px;height:1312px;" version="1.1" viewBox="0 0 1620 1312" width="1620px" zoomAndPan="magnify"><defs><filter height="300%" id="f1vb9kjcnmhqao" width="300%" x="-1" y="-1"><feGaussianBlur result="blurOut" stdDeviation="2.0"/><feColorMatrix in="blurOut" result="blurOut2" type="matrix" values="0 0 0 0 0 0 0 0 0 0 0 0 0 0 0 0 0 0 .4 0"/><feOffset dx="4.0" dy="4.0" in="blurOut2" result="blurOut3"/><feBlend in="SourceGraphic" in2="blurOut3" mode="normal"/></filter></defs><g><!--class Iterable--><rect fill="#FEFECE" filter="url(#f1vb9kjcnmhqao)" height="60.8047" id="Iterable" style="stroke: #A80036; stroke-width: 1.5;" width="133" x="295" y="8"/><ellipse cx="328.45" cy="24" fill="#B4A7E5" rx="11" ry="11" style="stroke: #A80036; stroke-width: 1.0;"/><path d="M329.4031,20.7813 L329.4031,27.2969 L331.1219,27.2969 C331.575,27.2969 331.7156,27.3281 331.8875,27.4531 C332.1219,27.625 332.2313,27.875 332.2313,28.1563 C332.2313,28.7188 331.8719,29 331.1219,29 L325.9813,29 C325.575,29 325.3719,28.9531 325.2156,28.8281 C324.9969,28.6719 324.8563,28.4063 324.8563,28.1563 C324.8563,27.8594 325.0125,27.5781 325.2625,27.4219 C325.4188,27.3125 325.5438,27.2969 325.9813,27.2969 L327.7,27.2969 L327.7,20.7813 L325.9813,20.7813 C325.5594,20.7813 325.3719,20.75 325.2156,20.6406 C324.9969,20.4688 324.8563,20.2188 324.8563,19.9375 C324.8563,19.6563 325.0125,19.3594 325.2625,19.2031 C325.4188,19.1094 325.5438,19.0938 325.9813,19.0938 L331.1219,19.0938 C331.575,19.0938 331.7156,19.125 331.8875,19.2344 C332.1219,19.4063 332.2313,19.6719 332.2313,19.9375 C332.2313,20.2344 332.0906,20.5156 331.825,20.6719 C331.7,20.75 331.5125,20.7813 331.1219,20.7813 Z "/><text fill="#000000" font-family="sans-serif" font-size="12" font-style="italic" lengthAdjust="spacingAndGlyphs" textLength="49" x="346.55" y="28.1543">Iterable</text><rect fill="#FFFFFF" height="15.9688" style="stroke: #000000; stroke-width: 1.0; stroke-dasharray: 2.0,2.0;" width="9" x="422" y="5"/><text fill="#000000" font-family="sans-serif" font-size="12" font-style="italic" lengthAdjust="spacingAndGlyphs" textLength="7" x="423" y="17.1387">T</text><line style="stroke: #A80036; stroke-width: 1.5;" x1="296" x2="427" y1="40" y2="40"/><line style="stroke: #A80036; stroke-width: 1.5;" x1="296" x2="427" y1="48" y2="48"/><text fill="#000000" font-family="sans-serif" font-size="11" lengthAdjust="spacingAndGlyphs" textLength="121" x="301" y="62.2104">Iterator&lt;T&gt; iterator()</text><!--class Map--><rect fill="#FEFECE" filter="url(#f1vb9kjcnmhqao)" height="48" id="Map" style="stroke: #A80036; stroke-width: 1.5;" width="82" x="1353.5" y="14.5"/><ellipse cx="1368.5" cy="30.5" fill="#B4A7E5" rx="11" ry="11" style="stroke: #A80036; stroke-width: 1.0;"/><path d="M1369.4531,27.2813 L1369.4531,33.7969 L1371.1719,33.7969 C1371.625,33.7969 1371.7656,33.8281 1371.9375,33.9531 C1372.1719,34.125 1372.2813,34.375 1372.2813,34.6563 C1372.2813,35.2188 1371.9219,35.5 1371.1719,35.5 L1366.0313,35.5 C1365.625,35.5 1365.4219,35.4531 1365.2656,35.3281 C1365.0469,35.1719 1364.9063,34.9063 1364.9063,34.6563 C1364.9063,34.3594 1365.0625,34.0781 1365.3125,33.9219 C1365.4688,33.8125 1365.5938,33.7969 1366.0313,33.7969 L1367.75,33.7969 L1367.75,27.2813 L1366.0313,27.2813 C1365.6094,27.2813 1365.4219,27.25 1365.2656,27.1406 C1365.0469,26.9688 1364.9063,26.7188 1364.9063,26.4375 C1364.9063,26.1563 1365.0625,25.8594 1365.3125,25.7031 C1365.4688,25.6094 1365.5938,25.5938 1366.0313,25.5938 L1371.1719,25.5938 C1371.625,25.5938 1371.7656,25.625 1371.9375,25.7344 C1372.1719,25.9063 1372.2813,26.1719 1372.2813,26.4375 C1372.2813,26.7344 1372.1406,27.0156 1371.875,27.1719 C1371.75,27.25 1371.5625,27.2813 1371.1719,27.2813 Z "/><text fill="#000000" font-family="sans-serif" font-size="12" font-style="italic" lengthAdjust="spacingAndGlyphs" textLength="26" x="1382.5" y="34.6543">Map</text><rect fill="#FFFFFF" height="15.9688" style="stroke: #000000; stroke-width: 1.0; stroke-dasharray: 2.0,2.0;" width="22" x="1416.5" y="11.5"/><text fill="#000000" font-family="sans-serif" font-size="12" font-style="italic" lengthAdjust="spacingAndGlyphs" textLength="20" x="1417.5" y="23.6387">K,V</text><line style="stroke: #A80036; stroke-width: 1.5;" x1="1354.5" x2="1434.5" y1="46.5" y2="46.5"/><line style="stroke: #A80036; stroke-width: 1.5;" x1="1354.5" x2="1434.5" y1="54.5" y2="54.5"/><!--class Collection--><rect fill="#FEFECE" filter="url(#f1vb9kjcnmhqao)" height="240.0703" id="Collection" style="stroke: #A80036; stroke-width: 1.5;" width="252" x="235.5" y="129"/><ellipse cx="320.75" cy="145" fill="#B4A7E5" rx="11" ry="11" style="stroke: #A80036; stroke-width: 1.0;"/><path d="M321.7031,141.7813 L321.7031,148.2969 L323.4219,148.2969 C323.875,148.2969 324.0156,148.3281 324.1875,148.4531 C324.4219,148.625 324.5313,148.875 324.5313,149.1563 C324.5313,149.7188 324.1719,150 323.4219,150 L318.2813,150 C317.875,150 317.6719,149.9531 317.5156,149.8281 C317.2969,149.6719 317.1563,149.4063 317.1563,149.1563 C317.1563,148.8594 317.3125,148.5781 317.5625,148.4219 C317.7188,148.3125 317.8438,148.2969 318.2813,148.2969 L320,148.2969 L320,141.7813 L318.2813,141.7813 C317.8594,141.7813 317.6719,141.75 317.5156,141.6406 C317.2969,141.4688 317.1563,141.2188 317.1563,140.9375 C317.1563,140.6563 317.3125,140.3594 317.5625,140.2031 C317.7188,140.1094 317.8438,140.0938 318.2813,140.0938 L323.4219,140.0938 C323.875,140.0938 324.0156,140.125 324.1875,140.2344 C324.4219,140.4063 324.5313,140.6719 324.5313,140.9375 C324.5313,141.2344 324.3906,141.5156 324.125,141.6719 C324,141.75 323.8125,141.7813 323.4219,141.7813 Z "/><text fill="#000000" font-family="sans-serif" font-size="12" font-style="italic" lengthAdjust="spacingAndGlyphs" textLength="61" x="341.25" y="149.1543">Collection</text><rect fill="#FFFFFF" height="15.9688" style="stroke: #000000; stroke-width: 1.0; stroke-dasharray: 2.0,2.0;" width="10" x="480.5" y="126"/><text fill="#000000" font-family="sans-serif" font-size="12" font-style="italic" lengthAdjust="spacingAndGlyphs" textLength="8" x="481.5" y="138.1387">E</text><line style="stroke: #A80036; stroke-width: 1.5;" x1="236.5" x2="486.5" y1="161" y2="161"/><line style="stroke: #A80036; stroke-width: 1.5;" x1="236.5" x2="486.5" y1="169" y2="169"/><text fill="#000000" font-family="sans-serif" font-size="11" lengthAdjust="spacingAndGlyphs" textLength="48" x="241.5" y="183.2104">int size()</text><text fill="#000000" font-family="sans-serif" font-size="11" lengthAdjust="spacingAndGlyphs" textLength="0" x="245.5" y="196.0151"/><text fill="#000000" font-family="sans-serif" font-size="11" lengthAdjust="spacingAndGlyphs" textLength="97" x="241.5" y="208.8198">Object[] toArray()</text><text fill="#000000" font-family="sans-serif" font-size="11" lengthAdjust="spacingAndGlyphs" textLength="123" x="241.5" y="221.6245">&lt;T&gt; T[] toArray(T[] a)</text><text fill="#000000" font-family="sans-serif" font-size="11" lengthAdjust="spacingAndGlyphs" textLength="0" x="245.5" y="234.4292"/><text fill="#000000" font-family="sans-serif" font-size="11" lengthAdjust="spacingAndGlyphs" textLength="96" x="241.5" y="247.2339">boolean add(E e)</text><text fill="#000000" font-family="sans-serif" font-size="11" lengthAdjust="spacingAndGlyphs" textLength="240" x="241.5" y="260.0386">boolean addAll(Collection&lt;? extends E&gt; c)</text><text fill="#000000" font-family="sans-serif" font-size="11" lengthAdjust="spacingAndGlyphs" textLength="147" x="241.5" y="272.8433">boolean remove(Object o)</text><text fill="#000000" font-family="sans-serif" font-size="11" lengthAdjust="spacingAndGlyphs" textLength="63" x="241.5" y="285.6479">void clear()</text><text fill="#000000" font-family="sans-serif" font-size="11" lengthAdjust="spacingAndGlyphs" textLength="0" x="245.5" y="298.4526"/><text fill="#000000" font-family="sans-serif" font-size="11" lengthAdjust="spacingAndGlyphs" textLength="192" x="241.5" y="311.2573">boolean retainAll(Collection&lt;?&gt; c)</text><text fill="#000000" font-family="sans-serif" font-size="11" lengthAdjust="spacingAndGlyphs" textLength="0" x="245.5" y="324.062"/><text fill="#000000" font-family="sans-serif" font-size="11" lengthAdjust="spacingAndGlyphs" textLength="102" x="241.5" y="336.8667">boolean isEmpty()</text><text fill="#000000" font-family="sans-serif" font-size="11" lengthAdjust="spacingAndGlyphs" textLength="152" x="241.5" y="349.6714">boolean contains(Object o)</text><text fill="#000000" font-family="sans-serif" font-size="11" lengthAdjust="spacingAndGlyphs" textLength="207" x="241.5" y="362.4761">boolean containsAll(Collection&lt;?&gt; c)</text><!--class Queue--><rect fill="#FEFECE" filter="url(#f1vb9kjcnmhqao)" height="99.2188" id="Queue" style="stroke: #A80036; stroke-width: 1.5;" width="114" x="86.5" y="551"/><ellipse cx="115" cy="567" fill="#B4A7E5" rx="11" ry="11" style="stroke: #A80036; stroke-width: 1.0;"/><path d="M115.9531,563.7813 L115.9531,570.2969 L117.6719,570.2969 C118.125,570.2969 118.2656,570.3281 118.4375,570.4531 C118.6719,570.625 118.7813,570.875 118.7813,571.1563 C118.7813,571.7188 118.4219,572 117.6719,572 L112.5313,572 C112.125,572 111.9219,571.9531 111.7656,571.8281 C111.5469,571.6719 111.4063,571.4063 111.4063,571.1563 C111.4063,570.8594 111.5625,570.5781 111.8125,570.4219 C111.9688,570.3125 112.0938,570.2969 112.5313,570.2969 L114.25,570.2969 L114.25,563.7813 L112.5313,563.7813 C112.1094,563.7813 111.9219,563.75 111.7656,563.6406 C111.5469,563.4688 111.4063,563.2188 111.4063,562.9375 C111.4063,562.6563 111.5625,562.3594 111.8125,562.2031 C111.9688,562.1094 112.0938,562.0938 112.5313,562.0938 L117.6719,562.0938 C118.125,562.0938 118.2656,562.125 118.4375,562.2344 C118.6719,562.4063 118.7813,562.6719 118.7813,562.9375 C118.7813,563.2344 118.6406,563.5156 118.375,563.6719 C118.25,563.75 118.0625,563.7813 117.6719,563.7813 Z "/><text fill="#000000" font-family="sans-serif" font-size="12" font-style="italic" lengthAdjust="spacingAndGlyphs" textLength="40" x="132" y="571.1543">Queue</text><rect fill="#FFFFFF" height="15.9688" style="stroke: #000000; stroke-width: 1.0; stroke-dasharray: 2.0,2.0;" width="10" x="193.5" y="548"/><text fill="#000000" font-family="sans-serif" font-size="12" font-style="italic" lengthAdjust="spacingAndGlyphs" textLength="8" x="194.5" y="560.1387">E</text><line style="stroke: #A80036; stroke-width: 1.5;" x1="87.5" x2="199.5" y1="583" y2="583"/><line style="stroke: #A80036; stroke-width: 1.5;" x1="87.5" x2="199.5" y1="591" y2="591"/><text fill="#000000" font-family="sans-serif" font-size="11" lengthAdjust="spacingAndGlyphs" textLength="102" x="92.5" y="605.2104">boolean offer(E e)</text><text fill="#000000" font-family="sans-serif" font-size="11" lengthAdjust="spacingAndGlyphs" textLength="39" x="92.5" y="618.0151">E poll()</text><text fill="#000000" font-family="sans-serif" font-size="11" lengthAdjust="spacingAndGlyphs" textLength="65" x="92.5" y="630.8198">E element()</text><text fill="#000000" font-family="sans-serif" font-size="11" lengthAdjust="spacingAndGlyphs" textLength="46" x="92.5" y="643.6245">E peek()</text><!--class Deque--><rect fill="#FEFECE" filter="url(#f1vb9kjcnmhqao)" height="201.6563" id="Deque" style="stroke: #A80036; stroke-width: 1.5;" width="139" x="6" y="832"/><ellipse cx="45.3" cy="848" fill="#B4A7E5" rx="11" ry="11" style="stroke: #A80036; stroke-width: 1.0;"/><path d="M46.2531,844.7813 L46.2531,851.2969 L47.9719,851.2969 C48.425,851.2969 48.5656,851.3281 48.7375,851.4531 C48.9719,851.625 49.0813,851.875 49.0813,852.1563 C49.0813,852.7188 48.7219,853 47.9719,853 L42.8313,853 C42.425,853 42.2219,852.9531 42.0656,852.8281 C41.8469,852.6719 41.7063,852.4063 41.7063,852.1563 C41.7063,851.8594 41.8625,851.5781 42.1125,851.4219 C42.2688,851.3125 42.3938,851.2969 42.8313,851.2969 L44.55,851.2969 L44.55,844.7813 L42.8313,844.7813 C42.4094,844.7813 42.2219,844.75 42.0656,844.6406 C41.8469,844.4688 41.7063,844.2188 41.7063,843.9375 C41.7063,843.6563 41.8625,843.3594 42.1125,843.2031 C42.2688,843.1094 42.3938,843.0938 42.8313,843.0938 L47.9719,843.0938 C48.425,843.0938 48.5656,843.125 48.7375,843.2344 C48.9719,843.4063 49.0813,843.6719 49.0813,843.9375 C49.0813,844.2344 48.9406,844.5156 48.675,844.6719 C48.55,844.75 48.3625,844.7813 47.9719,844.7813 Z "/><text fill="#000000" font-family="sans-serif" font-size="12" font-style="italic" lengthAdjust="spacingAndGlyphs" textLength="41" x="64.7" y="852.1543">Deque</text><rect fill="#FFFFFF" height="15.9688" style="stroke: #000000; stroke-width: 1.0; stroke-dasharray: 2.0,2.0;" width="10" x="138" y="829"/><text fill="#000000" font-family="sans-serif" font-size="12" font-style="italic" lengthAdjust="spacingAndGlyphs" textLength="8" x="139" y="841.1387">E</text><line style="stroke: #A80036; stroke-width: 1.5;" x1="7" x2="144" y1="864" y2="864"/><line style="stroke: #A80036; stroke-width: 1.5;" x1="7" x2="144" y1="872" y2="872"/><text fill="#000000" font-family="sans-serif" font-size="11" lengthAdjust="spacingAndGlyphs" textLength="99" x="12" y="886.2104">void addFirst(E e)</text><text fill="#000000" font-family="sans-serif" font-size="11" lengthAdjust="spacingAndGlyphs" textLength="98" x="12" y="899.0151">void addLast(E e)</text><text fill="#000000" font-family="sans-serif" font-size="11" lengthAdjust="spacingAndGlyphs" textLength="127" x="12" y="911.8198">boolean offerFirst(E e)</text><text fill="#000000" font-family="sans-serif" font-size="11" lengthAdjust="spacingAndGlyphs" textLength="126" x="12" y="924.6245">boolean offerLast(E e)</text><text fill="#000000" font-family="sans-serif" font-size="11" lengthAdjust="spacingAndGlyphs" textLength="87" x="12" y="937.4292">E removeFirst()</text><text fill="#000000" font-family="sans-serif" font-size="11" lengthAdjust="spacingAndGlyphs" textLength="86" x="12" y="950.2339">E removeLast()</text><text fill="#000000" font-family="sans-serif" font-size="11" lengthAdjust="spacingAndGlyphs" textLength="64" x="12" y="963.0386">E pollFirst()</text><text fill="#000000" font-family="sans-serif" font-size="11" lengthAdjust="spacingAndGlyphs" textLength="63" x="12" y="975.8433">E pollLast()</text><text fill="#000000" font-family="sans-serif" font-size="11" lengthAdjust="spacingAndGlyphs" textLength="62" x="12" y="988.6479">E getFirst()</text><text fill="#000000" font-family="sans-serif" font-size="11" lengthAdjust="spacingAndGlyphs" textLength="61" x="12" y="1001.4526">E getLast()</text><text fill="#000000" font-family="sans-serif" font-size="11" lengthAdjust="spacingAndGlyphs" textLength="71" x="12" y="1014.2573">E peekFirst()</text><text fill="#000000" font-family="sans-serif" font-size="11" lengthAdjust="spacingAndGlyphs" textLength="70" x="12" y="1027.062">E peekLast()</text><!--class PriorityQueue--><rect fill="#FEFECE" filter="url(#f1vb9kjcnmhqao)" height="48" id="PriorityQueue" style="stroke: #A80036; stroke-width: 1.5;" width="128" x="180.5" y="909"/><ellipse cx="195.5" cy="925" fill="#ADD1B2" rx="11" ry="11" style="stroke: #A80036; stroke-width: 1.0;"/><path d="M197.8438,920.6719 L198.0156,920.75 C198.2344,920.4375 198.4375,920.3438 198.7344,920.3438 C199.0313,920.3438 199.3125,920.4844 199.4688,920.75 C199.5625,920.9063 199.5781,921.0313 199.5781,921.4688 L199.5781,922.8906 C199.5781,923.3125 199.5469,923.5 199.4375,923.6563 C199.2656,923.875 199,924.0156 198.7344,924.0156 C198.5156,924.0156 198.2813,923.9063 198.1406,923.7656 C198,923.6406 197.9688,923.5156 197.9063,923.1094 C197.8125,922.7031 197.6406,922.4844 197.1563,922.2031 C196.6875,921.9531 196.0781,921.7969 195.5,921.7969 C193.7656,921.7969 192.5156,923.1094 192.5156,924.8906 L192.5156,925.9844 C192.5156,927.6875 193.8125,928.7813 195.8594,928.7813 C196.625,928.7813 197.3125,928.6563 197.7344,928.3906 C197.9219,928.2969 197.9219,928.2969 198.375,927.8125 C198.5625,927.625 198.7656,927.5469 198.9844,927.5469 C199.4531,927.5469 199.8438,927.9375 199.8438,928.3906 C199.8438,928.7813 199.5156,929.2344 198.9375,929.6406 C198.1875,930.1875 197.0313,930.4844 195.8125,930.4844 C192.9219,930.4844 190.8125,928.5938 190.8125,926.0156 L190.8125,924.8906 C190.8125,922.1719 192.8125,920.0938 195.4375,920.0938 C196.3125,920.0938 196.9063,920.2344 197.8438,920.6719 Z "/><text fill="#000000" font-family="sans-serif" font-size="12" lengthAdjust="spacingAndGlyphs" textLength="84" x="209.5" y="929.1543">PriorityQueue</text><rect fill="#FFFFFF" height="15.9688" style="stroke: #000000; stroke-width: 1.0; stroke-dasharray: 2.0,2.0;" width="10" x="301.5" y="906"/><text fill="#000000" font-family="sans-serif" font-size="12" font-style="italic" lengthAdjust="spacingAndGlyphs" textLength="8" x="302.5" y="918.1387">E</text><line style="stroke: #A80036; stroke-width: 1.5;" x1="181.5" x2="307.5" y1="941" y2="941"/><line style="stroke: #A80036; stroke-width: 1.5;" x1="181.5" x2="307.5" y1="949" y2="949"/><!--class List--><rect fill="#FEFECE" filter="url(#f1vb9kjcnmhqao)" height="124.8281" id="List" style="stroke: #A80036; stroke-width: 1.5;" width="252" x="235.5" y="538"/><ellipse cx="340.75" cy="554" fill="#B4A7E5" rx="11" ry="11" style="stroke: #A80036; stroke-width: 1.0;"/><path d="M341.7031,550.7813 L341.7031,557.2969 L343.4219,557.2969 C343.875,557.2969 344.0156,557.3281 344.1875,557.4531 C344.4219,557.625 344.5313,557.875 344.5313,558.1563 C344.5313,558.7188 344.1719,559 343.4219,559 L338.2813,559 C337.875,559 337.6719,558.9531 337.5156,558.8281 C337.2969,558.6719 337.1563,558.4063 337.1563,558.1563 C337.1563,557.8594 337.3125,557.5781 337.5625,557.4219 C337.7188,557.3125 337.8438,557.2969 338.2813,557.2969 L340,557.2969 L340,550.7813 L338.2813,550.7813 C337.8594,550.7813 337.6719,550.75 337.5156,550.6406 C337.2969,550.4688 337.1563,550.2188 337.1563,549.9375 C337.1563,549.6563 337.3125,549.3594 337.5625,549.2031 C337.7188,549.1094 337.8438,549.0938 338.2813,549.0938 L343.4219,549.0938 C343.875,549.0938 344.0156,549.125 344.1875,549.2344 C344.4219,549.4063 344.5313,549.6719 344.5313,549.9375 C344.5313,550.2344 344.3906,550.5156 344.125,550.6719 C344,550.75 343.8125,550.7813 343.4219,550.7813 Z "/><text fill="#000000" font-family="sans-serif" font-size="12" font-style="italic" lengthAdjust="spacingAndGlyphs" textLength="21" x="361.25" y="558.1543">List</text><rect fill="#FFFFFF" height="15.9688" style="stroke: #000000; stroke-width: 1.0; stroke-dasharray: 2.0,2.0;" width="10" x="480.5" y="535"/><text fill="#000000" font-family="sans-serif" font-size="12" font-style="italic" lengthAdjust="spacingAndGlyphs" textLength="8" x="481.5" y="547.1387">E</text><line style="stroke: #A80036; stroke-width: 1.5;" x1="236.5" x2="486.5" y1="570" y2="570"/><line style="stroke: #A80036; stroke-width: 1.5;" x1="236.5" x2="486.5" y1="578" y2="578"/><text fill="#000000" font-family="sans-serif" font-size="11" lengthAdjust="spacingAndGlyphs" textLength="116" x="241.5" y="592.2104">int indexOf(Object o)</text><text fill="#000000" font-family="sans-serif" font-size="11" lengthAdjust="spacingAndGlyphs" textLength="137" x="241.5" y="605.0151">int lastIndexOf(Object o)</text><text fill="#000000" font-family="sans-serif" font-size="11" lengthAdjust="spacingAndGlyphs" textLength="0" x="245.5" y="617.8198"/><text fill="#000000" font-family="sans-serif" font-size="11" lengthAdjust="spacingAndGlyphs" textLength="206" x="241.5" y="630.6245">ListIterator&lt;E&gt; listIterator(int index)</text><text fill="#000000" font-family="sans-serif" font-size="11" lengthAdjust="spacingAndGlyphs" textLength="0" x="245.5" y="643.4292"/><text fill="#000000" font-family="sans-serif" font-size="11" lengthAdjust="spacingAndGlyphs" textLength="240" x="241.5" y="656.2339">List&lt;E&gt; subList(int fromIndex, int toIndex)</text><!--class Set--><rect fill="#FEFECE" filter="url(#f1vb9kjcnmhqao)" height="48" id="Set" style="stroke: #A80036; stroke-width: 1.5;" width="65" x="683" y="576.5"/><ellipse cx="698" cy="592.5" fill="#B4A7E5" rx="11" ry="11" style="stroke: #A80036; stroke-width: 1.0;"/><path d="M698.9531,589.2813 L698.9531,595.7969 L700.6719,595.7969 C701.125,595.7969 701.2656,595.8281 701.4375,595.9531 C701.6719,596.125 701.7813,596.375 701.7813,596.6563 C701.7813,597.2188 701.4219,597.5 700.6719,597.5 L695.5313,597.5 C695.125,597.5 694.9219,597.4531 694.7656,597.3281 C694.5469,597.1719 694.4063,596.9063 694.4063,596.6563 C694.4063,596.3594 694.5625,596.0781 694.8125,595.9219 C694.9688,595.8125 695.0938,595.7969 695.5313,595.7969 L697.25,595.7969 L697.25,589.2813 L695.5313,589.2813 C695.1094,589.2813 694.9219,589.25 694.7656,589.1406 C694.5469,588.9688 694.4063,588.7188 694.4063,588.4375 C694.4063,588.1563 694.5625,587.8594 694.8125,587.7031 C694.9688,587.6094 695.0938,587.5938 695.5313,587.5938 L700.6719,587.5938 C701.125,587.5938 701.2656,587.625 701.4375,587.7344 C701.6719,587.9063 701.7813,588.1719 701.7813,588.4375 C701.7813,588.7344 701.6406,589.0156 701.375,589.1719 C701.25,589.25 701.0625,589.2813 700.6719,589.2813 Z "/><text fill="#000000" font-family="sans-serif" font-size="12" font-style="italic" lengthAdjust="spacingAndGlyphs" textLength="21" x="712" y="596.6543">Set</text><rect fill="#FFFFFF" height="15.9688" style="stroke: #000000; stroke-width: 1.0; stroke-dasharray: 2.0,2.0;" width="10" x="741" y="573.5"/><text fill="#000000" font-family="sans-serif" font-size="12" font-style="italic" lengthAdjust="spacingAndGlyphs" textLength="8" x="742" y="585.6387">E</text><line style="stroke: #A80036; stroke-width: 1.5;" x1="684" x2="747" y1="608.5" y2="608.5"/><line style="stroke: #A80036; stroke-width: 1.5;" x1="684" x2="747" y1="616.5" y2="616.5"/><!--class ArrayList--><rect fill="#FEFECE" filter="url(#f1vb9kjcnmhqao)" height="48" id="ArrayList" style="stroke: #A80036; stroke-width: 1.5;" width="97" x="475" y="909"/><ellipse cx="490" cy="925" fill="#ADD1B2" rx="11" ry="11" style="stroke: #A80036; stroke-width: 1.0;"/><path d="M492.3438,920.6719 L492.5156,920.75 C492.7344,920.4375 492.9375,920.3438 493.2344,920.3438 C493.5313,920.3438 493.8125,920.4844 493.9688,920.75 C494.0625,920.9063 494.0781,921.0313 494.0781,921.4688 L494.0781,922.8906 C494.0781,923.3125 494.0469,923.5 493.9375,923.6563 C493.7656,923.875 493.5,924.0156 493.2344,924.0156 C493.0156,924.0156 492.7813,923.9063 492.6406,923.7656 C492.5,923.6406 492.4688,923.5156 492.4063,923.1094 C492.3125,922.7031 492.1406,922.4844 491.6563,922.2031 C491.1875,921.9531 490.5781,921.7969 490,921.7969 C488.2656,921.7969 487.0156,923.1094 487.0156,924.8906 L487.0156,925.9844 C487.0156,927.6875 488.3125,928.7813 490.3594,928.7813 C491.125,928.7813 491.8125,928.6563 492.2344,928.3906 C492.4219,928.2969 492.4219,928.2969 492.875,927.8125 C493.0625,927.625 493.2656,927.5469 493.4844,927.5469 C493.9531,927.5469 494.3438,927.9375 494.3438,928.3906 C494.3438,928.7813 494.0156,929.2344 493.4375,929.6406 C492.6875,930.1875 491.5313,930.4844 490.3125,930.4844 C487.4219,930.4844 485.3125,928.5938 485.3125,926.0156 L485.3125,924.8906 C485.3125,922.1719 487.3125,920.0938 489.9375,920.0938 C490.8125,920.0938 491.4063,920.2344 492.3438,920.6719 Z "/><text fill="#000000" font-family="sans-serif" font-size="12" lengthAdjust="spacingAndGlyphs" textLength="53" x="504" y="929.1543">ArrayList</text><rect fill="#FFFFFF" height="15.9688" style="stroke: #000000; stroke-width: 1.0; stroke-dasharray: 2.0,2.0;" width="10" x="565" y="906"/><text fill="#000000" font-family="sans-serif" font-size="12" font-style="italic" lengthAdjust="spacingAndGlyphs" textLength="8" x="566" y="918.1387">E</text><line style="stroke: #A80036; stroke-width: 1.5;" x1="476" x2="571" y1="941" y2="941"/><line style="stroke: #A80036; stroke-width: 1.5;" x1="476" x2="571" y1="949" y2="949"/><!--class RandomAccess--><rect fill="#FEFECE" filter="url(#f1vb9kjcnmhqao)" height="48" id="RandomAccess" style="stroke: #A80036; stroke-width: 1.5;" width="125" x="523" y="576.5"/><ellipse cx="538" cy="592.5" fill="#B4A7E5" rx="11" ry="11" style="stroke: #A80036; stroke-width: 1.0;"/><path d="M538.9531,589.2813 L538.9531,595.7969 L540.6719,595.7969 C541.125,595.7969 541.2656,595.8281 541.4375,595.9531 C541.6719,596.125 541.7813,596.375 541.7813,596.6563 C541.7813,597.2188 541.4219,597.5 540.6719,597.5 L535.5313,597.5 C535.125,597.5 534.9219,597.4531 534.7656,597.3281 C534.5469,597.1719 534.4063,596.9063 534.4063,596.6563 C534.4063,596.3594 534.5625,596.0781 534.8125,595.9219 C534.9688,595.8125 535.0938,595.7969 535.5313,595.7969 L537.25,595.7969 L537.25,589.2813 L535.5313,589.2813 C535.1094,589.2813 534.9219,589.25 534.7656,589.1406 C534.5469,588.9688 534.4063,588.7188 534.4063,588.4375 C534.4063,588.1563 534.5625,587.8594 534.8125,587.7031 C534.9688,587.6094 535.0938,587.5938 535.5313,587.5938 L540.6719,587.5938 C541.125,587.5938 541.2656,587.625 541.4375,587.7344 C541.6719,587.9063 541.7813,588.1719 541.7813,588.4375 C541.7813,588.7344 541.6406,589.0156 541.375,589.1719 C541.25,589.25 541.0625,589.2813 540.6719,589.2813 Z "/><text fill="#000000" font-family="sans-serif" font-size="12" font-style="italic" lengthAdjust="spacingAndGlyphs" textLength="93" x="552" y="596.6543">RandomAccess</text><line style="stroke: #A80036; stroke-width: 1.5;" x1="524" x2="647" y1="608.5" y2="608.5"/><line style="stroke: #A80036; stroke-width: 1.5;" x1="524" x2="647" y1="616.5" y2="616.5"/><!--class LinkedList--><rect fill="#FEFECE" filter="url(#f1vb9kjcnmhqao)" height="48" id="LinkedList" style="stroke: #A80036; stroke-width: 1.5;" width="105" x="166" y="1119.5"/><ellipse cx="181" cy="1135.5" fill="#ADD1B2" rx="11" ry="11" style="stroke: #A80036; stroke-width: 1.0;"/><path d="M183.3438,1131.1719 L183.5156,1131.25 C183.7344,1130.9375 183.9375,1130.8438 184.2344,1130.8438 C184.5313,1130.8438 184.8125,1130.9844 184.9688,1131.25 C185.0625,1131.4063 185.0781,1131.5313 185.0781,1131.9688 L185.0781,1133.3906 C185.0781,1133.8125 185.0469,1134 184.9375,1134.1563 C184.7656,1134.375 184.5,1134.5156 184.2344,1134.5156 C184.0156,1134.5156 183.7813,1134.4063 183.6406,1134.2656 C183.5,1134.1406 183.4688,1134.0156 183.4063,1133.6094 C183.3125,1133.2031 183.1406,1132.9844 182.6563,1132.7031 C182.1875,1132.4531 181.5781,1132.2969 181,1132.2969 C179.2656,1132.2969 178.0156,1133.6094 178.0156,1135.3906 L178.0156,1136.4844 C178.0156,1138.1875 179.3125,1139.2813 181.3594,1139.2813 C182.125,1139.2813 182.8125,1139.1563 183.2344,1138.8906 C183.4219,1138.7969 183.4219,1138.7969 183.875,1138.3125 C184.0625,1138.125 184.2656,1138.0469 184.4844,1138.0469 C184.9531,1138.0469 185.3438,1138.4375 185.3438,1138.8906 C185.3438,1139.2813 185.0156,1139.7344 184.4375,1140.1406 C183.6875,1140.6875 182.5313,1140.9844 181.3125,1140.9844 C178.4219,1140.9844 176.3125,1139.0938 176.3125,1136.5156 L176.3125,1135.3906 C176.3125,1132.6719 178.3125,1130.5938 180.9375,1130.5938 C181.8125,1130.5938 182.4063,1130.7344 183.3438,1131.1719 Z "/><text fill="#000000" font-family="sans-serif" font-size="12" lengthAdjust="spacingAndGlyphs" textLength="61" x="195" y="1139.6543">LinkedList</text><rect fill="#FFFFFF" height="15.9688" style="stroke: #000000; stroke-width: 1.0; stroke-dasharray: 2.0,2.0;" width="10" x="264" y="1116.5"/><text fill="#000000" font-family="sans-serif" font-size="12" font-style="italic" lengthAdjust="spacingAndGlyphs" textLength="8" x="265" y="1128.6387">E</text><line style="stroke: #A80036; stroke-width: 1.5;" x1="167" x2="270" y1="1151.5" y2="1151.5"/><line style="stroke: #A80036; stroke-width: 1.5;" x1="167" x2="270" y1="1159.5" y2="1159.5"/><!--class HashSet--><rect fill="#FEFECE" filter="url(#f1vb9kjcnmhqao)" height="48" id="HashSet" style="stroke: #A80036; stroke-width: 1.5;" width="97" x="637" y="909"/><ellipse cx="652" cy="925" fill="#ADD1B2" rx="11" ry="11" style="stroke: #A80036; stroke-width: 1.0;"/><path d="M654.3438,920.6719 L654.5156,920.75 C654.7344,920.4375 654.9375,920.3438 655.2344,920.3438 C655.5313,920.3438 655.8125,920.4844 655.9688,920.75 C656.0625,920.9063 656.0781,921.0313 656.0781,921.4688 L656.0781,922.8906 C656.0781,923.3125 656.0469,923.5 655.9375,923.6563 C655.7656,923.875 655.5,924.0156 655.2344,924.0156 C655.0156,924.0156 654.7813,923.9063 654.6406,923.7656 C654.5,923.6406 654.4688,923.5156 654.4063,923.1094 C654.3125,922.7031 654.1406,922.4844 653.6563,922.2031 C653.1875,921.9531 652.5781,921.7969 652,921.7969 C650.2656,921.7969 649.0156,923.1094 649.0156,924.8906 L649.0156,925.9844 C649.0156,927.6875 650.3125,928.7813 652.3594,928.7813 C653.125,928.7813 653.8125,928.6563 654.2344,928.3906 C654.4219,928.2969 654.4219,928.2969 654.875,927.8125 C655.0625,927.625 655.2656,927.5469 655.4844,927.5469 C655.9531,927.5469 656.3438,927.9375 656.3438,928.3906 C656.3438,928.7813 656.0156,929.2344 655.4375,929.6406 C654.6875,930.1875 653.5313,930.4844 652.3125,930.4844 C649.4219,930.4844 647.3125,928.5938 647.3125,926.0156 L647.3125,924.8906 C647.3125,922.1719 649.3125,920.0938 651.9375,920.0938 C652.8125,920.0938 653.4063,920.2344 654.3438,920.6719 Z "/><text fill="#000000" font-family="sans-serif" font-size="12" lengthAdjust="spacingAndGlyphs" textLength="53" x="666" y="929.1543">HashSet</text><rect fill="#FFFFFF" height="15.9688" style="stroke: #000000; stroke-width: 1.0; stroke-dasharray: 2.0,2.0;" width="10" x="727" y="906"/><text fill="#000000" font-family="sans-serif" font-size="12" font-style="italic" lengthAdjust="spacingAndGlyphs" textLength="8" x="728" y="918.1387">E</text><line style="stroke: #A80036; stroke-width: 1.5;" x1="638" x2="733" y1="941" y2="941"/><line style="stroke: #A80036; stroke-width: 1.5;" x1="638" x2="733" y1="949" y2="949"/><!--class SortedSet--><rect fill="#FEFECE" filter="url(#f1vb9kjcnmhqao)" height="99.2188" id="SortedSet" style="stroke: #A80036; stroke-width: 1.5;" width="306" x="769.5" y="883.5"/><ellipse cx="880.75" cy="899.5" fill="#B4A7E5" rx="11" ry="11" style="stroke: #A80036; stroke-width: 1.0;"/><path d="M881.7031,896.2813 L881.7031,902.7969 L883.4219,902.7969 C883.875,902.7969 884.0156,902.8281 884.1875,902.9531 C884.4219,903.125 884.5313,903.375 884.5313,903.6563 C884.5313,904.2188 884.1719,904.5 883.4219,904.5 L878.2813,904.5 C877.875,904.5 877.6719,904.4531 877.5156,904.3281 C877.2969,904.1719 877.1563,903.9063 877.1563,903.6563 C877.1563,903.3594 877.3125,903.0781 877.5625,902.9219 C877.7188,902.8125 877.8438,902.7969 878.2813,902.7969 L880,902.7969 L880,896.2813 L878.2813,896.2813 C877.8594,896.2813 877.6719,896.25 877.5156,896.1406 C877.2969,895.9688 877.1563,895.7188 877.1563,895.4375 C877.1563,895.1563 877.3125,894.8594 877.5625,894.7031 C877.7188,894.6094 877.8438,894.5938 878.2813,894.5938 L883.4219,894.5938 C883.875,894.5938 884.0156,894.625 884.1875,894.7344 C884.4219,894.9063 884.5313,895.1719 884.5313,895.4375 C884.5313,895.7344 884.3906,896.0156 884.125,896.1719 C884,896.25 883.8125,896.2813 883.4219,896.2813 Z "/><text fill="#000000" font-family="sans-serif" font-size="12" font-style="italic" lengthAdjust="spacingAndGlyphs" textLength="63" x="901.25" y="903.6543">SortedSet</text><rect fill="#FFFFFF" height="15.9688" style="stroke: #000000; stroke-width: 1.0; stroke-dasharray: 2.0,2.0;" width="10" x="1068.5" y="880.5"/><text fill="#000000" font-family="sans-serif" font-size="12" font-style="italic" lengthAdjust="spacingAndGlyphs" textLength="8" x="1069.5" y="892.6387">E</text><line style="stroke: #A80036; stroke-width: 1.5;" x1="770.5" x2="1074.5" y1="915.5" y2="915.5"/><line style="stroke: #A80036; stroke-width: 1.5;" x1="770.5" x2="1074.5" y1="923.5" y2="923.5"/><text fill="#000000" font-family="sans-serif" font-size="11" lengthAdjust="spacingAndGlyphs" textLength="218" x="775.5" y="937.7104">Comparator&lt;? super E&gt; comparator()</text><text fill="#000000" font-family="sans-serif" font-size="11" lengthAdjust="spacingAndGlyphs" textLength="294" x="775.5" y="950.5151">SortedSet&lt;E&gt; subSet(E fromElement, E toElement)</text><text fill="#000000" font-family="sans-serif" font-size="11" lengthAdjust="spacingAndGlyphs" textLength="209" x="775.5" y="963.3198">SortedSet&lt;E&gt; headSet(E toElement)</text><text fill="#000000" font-family="sans-serif" font-size="11" lengthAdjust="spacingAndGlyphs" textLength="214" x="775.5" y="976.1245">SortedSet&lt;E&gt; tailSet(E fromElement)</text><!--class NavigableSet--><rect fill="#FEFECE" filter="url(#f1vb9kjcnmhqao)" height="99.2188" id="NavigableSet" style="stroke: #A80036; stroke-width: 1.5;" width="126" x="859.5" y="1094"/><ellipse cx="874.5" cy="1110" fill="#B4A7E5" rx="11" ry="11" style="stroke: #A80036; stroke-width: 1.0;"/><path d="M875.4531,1106.7813 L875.4531,1113.2969 L877.1719,1113.2969 C877.625,1113.2969 877.7656,1113.3281 877.9375,1113.4531 C878.1719,1113.625 878.2813,1113.875 878.2813,1114.1563 C878.2813,1114.7188 877.9219,1115 877.1719,1115 L872.0313,1115 C871.625,1115 871.4219,1114.9531 871.2656,1114.8281 C871.0469,1114.6719 870.9063,1114.4063 870.9063,1114.1563 C870.9063,1113.8594 871.0625,1113.5781 871.3125,1113.4219 C871.4688,1113.3125 871.5938,1113.2969 872.0313,1113.2969 L873.75,1113.2969 L873.75,1106.7813 L872.0313,1106.7813 C871.6094,1106.7813 871.4219,1106.75 871.2656,1106.6406 C871.0469,1106.4688 870.9063,1106.2188 870.9063,1105.9375 C870.9063,1105.6563 871.0625,1105.3594 871.3125,1105.2031 C871.4688,1105.1094 871.5938,1105.0938 872.0313,1105.0938 L877.1719,1105.0938 C877.625,1105.0938 877.7656,1105.125 877.9375,1105.2344 C878.1719,1105.4063 878.2813,1105.6719 878.2813,1105.9375 C878.2813,1106.2344 878.1406,1106.5156 877.875,1106.6719 C877.75,1106.75 877.5625,1106.7813 877.1719,1106.7813 Z "/><text fill="#000000" font-family="sans-serif" font-size="12" font-style="italic" lengthAdjust="spacingAndGlyphs" textLength="82" x="888.5" y="1114.1543">NavigableSet</text><rect fill="#FFFFFF" height="15.9688" style="stroke: #000000; stroke-width: 1.0; stroke-dasharray: 2.0,2.0;" width="10" x="978.5" y="1091"/><text fill="#000000" font-family="sans-serif" font-size="12" font-style="italic" lengthAdjust="spacingAndGlyphs" textLength="8" x="979.5" y="1103.1387">E</text><line style="stroke: #A80036; stroke-width: 1.5;" x1="860.5" x2="984.5" y1="1126" y2="1126"/><line style="stroke: #A80036; stroke-width: 1.5;" x1="860.5" x2="984.5" y1="1134" y2="1134"/><text fill="#000000" font-family="sans-serif" font-size="11" lengthAdjust="spacingAndGlyphs" textLength="68" x="865.5" y="1148.2104">E lower(E e)</text><text fill="#000000" font-family="sans-serif" font-size="11" lengthAdjust="spacingAndGlyphs" textLength="63" x="865.5" y="1161.0151">E floor(E e)</text><text fill="#000000" font-family="sans-serif" font-size="11" lengthAdjust="spacingAndGlyphs" textLength="73" x="865.5" y="1173.8198">E ceiling(E e)</text><text fill="#000000" font-family="sans-serif" font-size="11" lengthAdjust="spacingAndGlyphs" textLength="73" x="865.5" y="1186.6245">E higher(E e)</text><!--class TreeSet--><rect fill="#FEFECE" filter="url(#f1vb9kjcnmhqao)" height="48" id="TreeSet" style="stroke: #A80036; stroke-width: 1.5;" width="93" x="876" y="1253"/><ellipse cx="891" cy="1269" fill="#ADD1B2" rx="11" ry="11" style="stroke: #A80036; stroke-width: 1.0;"/><path d="M893.3438,1264.6719 L893.5156,1264.75 C893.7344,1264.4375 893.9375,1264.3438 894.2344,1264.3438 C894.5313,1264.3438 894.8125,1264.4844 894.9688,1264.75 C895.0625,1264.9063 895.0781,1265.0313 895.0781,1265.4688 L895.0781,1266.8906 C895.0781,1267.3125 895.0469,1267.5 894.9375,1267.6563 C894.7656,1267.875 894.5,1268.0156 894.2344,1268.0156 C894.0156,1268.0156 893.7813,1267.9063 893.6406,1267.7656 C893.5,1267.6406 893.4688,1267.5156 893.4063,1267.1094 C893.3125,1266.7031 893.1406,1266.4844 892.6563,1266.2031 C892.1875,1265.9531 891.5781,1265.7969 891,1265.7969 C889.2656,1265.7969 888.0156,1267.1094 888.0156,1268.8906 L888.0156,1269.9844 C888.0156,1271.6875 889.3125,1272.7813 891.3594,1272.7813 C892.125,1272.7813 892.8125,1272.6563 893.2344,1272.3906 C893.4219,1272.2969 893.4219,1272.2969 893.875,1271.8125 C894.0625,1271.625 894.2656,1271.5469 894.4844,1271.5469 C894.9531,1271.5469 895.3438,1271.9375 895.3438,1272.3906 C895.3438,1272.7813 895.0156,1273.2344 894.4375,1273.6406 C893.6875,1274.1875 892.5313,1274.4844 891.3125,1274.4844 C888.4219,1274.4844 886.3125,1272.5938 886.3125,1270.0156 L886.3125,1268.8906 C886.3125,1266.1719 888.3125,1264.0938 890.9375,1264.0938 C891.8125,1264.0938 892.4063,1264.2344 893.3438,1264.6719 Z "/><text fill="#000000" font-family="sans-serif" font-size="12" lengthAdjust="spacingAndGlyphs" textLength="49" x="905" y="1273.1543">TreeSet</text><rect fill="#FFFFFF" height="15.9688" style="stroke: #000000; stroke-width: 1.0; stroke-dasharray: 2.0,2.0;" width="10" x="962" y="1250"/><text fill="#000000" font-family="sans-serif" font-size="12" font-style="italic" lengthAdjust="spacingAndGlyphs" textLength="8" x="963" y="1262.1387">E</text><line style="stroke: #A80036; stroke-width: 1.5;" x1="877" x2="968" y1="1285" y2="1285"/><line style="stroke: #A80036; stroke-width: 1.5;" x1="877" x2="968" y1="1293" y2="1293"/><!--class LinkedHashSet--><rect fill="#FEFECE" filter="url(#f1vb9kjcnmhqao)" height="48" id="LinkedHashSet" style="stroke: #A80036; stroke-width: 1.5;" width="137" x="617" y="1119.5"/><ellipse cx="632" cy="1135.5" fill="#ADD1B2" rx="11" ry="11" style="stroke: #A80036; stroke-width: 1.0;"/><path d="M634.3438,1131.1719 L634.5156,1131.25 C634.7344,1130.9375 634.9375,1130.8438 635.2344,1130.8438 C635.5313,1130.8438 635.8125,1130.9844 635.9688,1131.25 C636.0625,1131.4063 636.0781,1131.5313 636.0781,1131.9688 L636.0781,1133.3906 C636.0781,1133.8125 636.0469,1134 635.9375,1134.1563 C635.7656,1134.375 635.5,1134.5156 635.2344,1134.5156 C635.0156,1134.5156 634.7813,1134.4063 634.6406,1134.2656 C634.5,1134.1406 634.4688,1134.0156 634.4063,1133.6094 C634.3125,1133.2031 634.1406,1132.9844 633.6563,1132.7031 C633.1875,1132.4531 632.5781,1132.2969 632,1132.2969 C630.2656,1132.2969 629.0156,1133.6094 629.0156,1135.3906 L629.0156,1136.4844 C629.0156,1138.1875 630.3125,1139.2813 632.3594,1139.2813 C633.125,1139.2813 633.8125,1139.1563 634.2344,1138.8906 C634.4219,1138.7969 634.4219,1138.7969 634.875,1138.3125 C635.0625,1138.125 635.2656,1138.0469 635.4844,1138.0469 C635.9531,1138.0469 636.3438,1138.4375 636.3438,1138.8906 C636.3438,1139.2813 636.0156,1139.7344 635.4375,1140.1406 C634.6875,1140.6875 633.5313,1140.9844 632.3125,1140.9844 C629.4219,1140.9844 627.3125,1139.0938 627.3125,1136.5156 L627.3125,1135.3906 C627.3125,1132.6719 629.3125,1130.5938 631.9375,1130.5938 C632.8125,1130.5938 633.4063,1130.7344 634.3438,1131.1719 Z "/><text fill="#000000" font-family="sans-serif" font-size="12" lengthAdjust="spacingAndGlyphs" textLength="93" x="646" y="1139.6543">LinkedHashSet</text><rect fill="#FFFFFF" height="15.9688" style="stroke: #000000; stroke-width: 1.0; stroke-dasharray: 2.0,2.0;" width="10" x="747" y="1116.5"/><text fill="#000000" font-family="sans-serif" font-size="12" font-style="italic" lengthAdjust="spacingAndGlyphs" textLength="8" x="748" y="1128.6387">E</text><line style="stroke: #A80036; stroke-width: 1.5;" x1="618" x2="753" y1="1151.5" y2="1151.5"/><line style="stroke: #A80036; stroke-width: 1.5;" x1="618" x2="753" y1="1159.5" y2="1159.5"/><!--class SortedMap--><rect fill="#FEFECE" filter="url(#f1vb9kjcnmhqao)" height="124.8281" id="SortedMap" style="stroke: #A80036; stroke-width: 1.5;" width="273" x="1029" y="186.5"/><ellipse cx="1115.25" cy="202.5" fill="#B4A7E5" rx="11" ry="11" style="stroke: #A80036; stroke-width: 1.0;"/><path d="M1116.2031,199.2813 L1116.2031,205.7969 L1117.9219,205.7969 C1118.375,205.7969 1118.5156,205.8281 1118.6875,205.9531 C1118.9219,206.125 1119.0313,206.375 1119.0313,206.6563 C1119.0313,207.2188 1118.6719,207.5 1117.9219,207.5 L1112.7813,207.5 C1112.375,207.5 1112.1719,207.4531 1112.0156,207.3281 C1111.7969,207.1719 1111.6563,206.9063 1111.6563,206.6563 C1111.6563,206.3594 1111.8125,206.0781 1112.0625,205.9219 C1112.2188,205.8125 1112.3438,205.7969 1112.7813,205.7969 L1114.5,205.7969 L1114.5,199.2813 L1112.7813,199.2813 C1112.3594,199.2813 1112.1719,199.25 1112.0156,199.1406 C1111.7969,198.9688 1111.6563,198.7188 1111.6563,198.4375 C1111.6563,198.1563 1111.8125,197.8594 1112.0625,197.7031 C1112.2188,197.6094 1112.3438,197.5938 1112.7813,197.5938 L1117.9219,197.5938 C1118.375,197.5938 1118.5156,197.625 1118.6875,197.7344 C1118.9219,197.9063 1119.0313,198.1719 1119.0313,198.4375 C1119.0313,198.7344 1118.8906,199.0156 1118.625,199.1719 C1118.5,199.25 1118.3125,199.2813 1117.9219,199.2813 Z "/><text fill="#000000" font-family="sans-serif" font-size="12" font-style="italic" lengthAdjust="spacingAndGlyphs" textLength="68" x="1135.75" y="206.6543">SortedMap</text><rect fill="#FFFFFF" height="15.9688" style="stroke: #000000; stroke-width: 1.0; stroke-dasharray: 2.0,2.0;" width="22" x="1283" y="183.5"/><text fill="#000000" font-family="sans-serif" font-size="12" font-style="italic" lengthAdjust="spacingAndGlyphs" textLength="20" x="1284" y="195.6387">K,V</text><line style="stroke: #A80036; stroke-width: 1.5;" x1="1030" x2="1301" y1="218.5" y2="218.5"/><line style="stroke: #A80036; stroke-width: 1.5;" x1="1030" x2="1301" y1="226.5" y2="226.5"/><text fill="#000000" font-family="sans-serif" font-size="11" lengthAdjust="spacingAndGlyphs" textLength="218" x="1035" y="240.7104">Comparator&lt;? super K&gt; comparator()</text><text fill="#000000" font-family="sans-serif" font-size="11" lengthAdjust="spacingAndGlyphs" textLength="0" x="1039" y="253.5151"/><text fill="#000000" font-family="sans-serif" font-size="11" lengthAdjust="spacingAndGlyphs" textLength="261" x="1035" y="266.3198">SortedMap&lt;K,V&gt; subMap(K fromKey, K toKey)</text><text fill="#000000" font-family="sans-serif" font-size="11" lengthAdjust="spacingAndGlyphs" textLength="0" x="1039" y="279.1245"/><text fill="#000000" font-family="sans-serif" font-size="11" lengthAdjust="spacingAndGlyphs" textLength="202" x="1035" y="291.9292">SortedMap&lt;K,V&gt; headMap(K toKey)</text><text fill="#000000" font-family="sans-serif" font-size="11" lengthAdjust="spacingAndGlyphs" textLength="207" x="1035" y="304.7339">SortedMap&lt;K,V&gt; tailMap(K fromKey)</text><!--class NavigableMap--><rect fill="#FEFECE" filter="url(#f1vb9kjcnmhqao)" height="342.5078" id="NavigableMap" style="stroke: #A80036; stroke-width: 1.5;" width="342" x="994.5" y="429"/><ellipse cx="1105.75" cy="445" fill="#B4A7E5" rx="11" ry="11" style="stroke: #A80036; stroke-width: 1.0;"/><path d="M1106.7031,441.7813 L1106.7031,448.2969 L1108.4219,448.2969 C1108.875,448.2969 1109.0156,448.3281 1109.1875,448.4531 C1109.4219,448.625 1109.5313,448.875 1109.5313,449.1563 C1109.5313,449.7188 1109.1719,450 1108.4219,450 L1103.2813,450 C1102.875,450 1102.6719,449.9531 1102.5156,449.8281 C1102.2969,449.6719 1102.1563,449.4063 1102.1563,449.1563 C1102.1563,448.8594 1102.3125,448.5781 1102.5625,448.4219 C1102.7188,448.3125 1102.8438,448.2969 1103.2813,448.2969 L1105,448.2969 L1105,441.7813 L1103.2813,441.7813 C1102.8594,441.7813 1102.6719,441.75 1102.5156,441.6406 C1102.2969,441.4688 1102.1563,441.2188 1102.1563,440.9375 C1102.1563,440.6563 1102.3125,440.3594 1102.5625,440.2031 C1102.7188,440.1094 1102.8438,440.0938 1103.2813,440.0938 L1108.4219,440.0938 C1108.875,440.0938 1109.0156,440.125 1109.1875,440.2344 C1109.4219,440.4063 1109.5313,440.6719 1109.5313,440.9375 C1109.5313,441.2344 1109.3906,441.5156 1109.125,441.6719 C1109,441.75 1108.8125,441.7813 1108.4219,441.7813 Z "/><text fill="#000000" font-family="sans-serif" font-size="12" font-style="italic" lengthAdjust="spacingAndGlyphs" textLength="87" x="1126.25" y="449.1543">NavigableMap</text><rect fill="#FFFFFF" height="15.9688" style="stroke: #000000; stroke-width: 1.0; stroke-dasharray: 2.0,2.0;" width="22" x="1317.5" y="426"/><text fill="#000000" font-family="sans-serif" font-size="12" font-style="italic" lengthAdjust="spacingAndGlyphs" textLength="20" x="1318.5" y="438.1387">K,V</text><line style="stroke: #A80036; stroke-width: 1.5;" x1="995.5" x2="1335.5" y1="461" y2="461"/><line style="stroke: #A80036; stroke-width: 1.5;" x1="995.5" x2="1335.5" y1="469" y2="469"/><text fill="#000000" font-family="sans-serif" font-size="11" lengthAdjust="spacingAndGlyphs" textLength="194" x="1000.5" y="483.2104">Map.Entry&lt;K,V&gt; lowerEntry(K key)</text><text fill="#000000" font-family="sans-serif" font-size="11" lengthAdjust="spacingAndGlyphs" textLength="100" x="1000.5" y="496.0151">K lowerKey(K key)</text><text fill="#000000" font-family="sans-serif" font-size="11" lengthAdjust="spacingAndGlyphs" textLength="189" x="1000.5" y="508.8198">Map.Entry&lt;K,V&gt; floorEntry(K key)</text><text fill="#000000" font-family="sans-serif" font-size="11" lengthAdjust="spacingAndGlyphs" textLength="95" x="1000.5" y="521.6245">K floorKey(K key)</text><text fill="#000000" font-family="sans-serif" font-size="11" lengthAdjust="spacingAndGlyphs" textLength="199" x="1000.5" y="534.4292">Map.Entry&lt;K,V&gt; ceilingEntry(K key)</text><text fill="#000000" font-family="sans-serif" font-size="11" lengthAdjust="spacingAndGlyphs" textLength="105" x="1000.5" y="547.2339">K ceilingKey(K key)</text><text fill="#000000" font-family="sans-serif" font-size="11" lengthAdjust="spacingAndGlyphs" textLength="199" x="1000.5" y="560.0386">Map.Entry&lt;K,V&gt; higherEntry(K key)</text><text fill="#000000" font-family="sans-serif" font-size="11" lengthAdjust="spacingAndGlyphs" textLength="105" x="1000.5" y="572.8433">K higherKey(K key)</text><text fill="#000000" font-family="sans-serif" font-size="11" lengthAdjust="spacingAndGlyphs" textLength="156" x="1000.5" y="585.6479">Map.Entry&lt;K,V&gt; firstEntry()</text><text fill="#000000" font-family="sans-serif" font-size="11" lengthAdjust="spacingAndGlyphs" textLength="154" x="1000.5" y="598.4526">Map.Entry&lt;K,V&gt; lastEntry()</text><text fill="#000000" font-family="sans-serif" font-size="11" lengthAdjust="spacingAndGlyphs" textLength="178" x="1000.5" y="611.2573">Map.Entry&lt;K,V&gt; pollFirstEntry()</text><text fill="#000000" font-family="sans-serif" font-size="11" lengthAdjust="spacingAndGlyphs" textLength="177" x="1000.5" y="624.062">Map.Entry&lt;K,V&gt; pollLastEntry()</text><text fill="#000000" font-family="sans-serif" font-size="11" lengthAdjust="spacingAndGlyphs" textLength="0" x="1004.5" y="636.8667"/><text fill="#000000" font-family="sans-serif" font-size="11" lengthAdjust="spacingAndGlyphs" textLength="214" x="1000.5" y="649.6714">NavigableMap&lt;K,V&gt; descendingMap()</text><text fill="#000000" font-family="sans-serif" font-size="11" lengthAdjust="spacingAndGlyphs" textLength="204" x="1000.5" y="662.4761">NavigableSet&lt;K&gt; navigableKeySet()</text><text fill="#000000" font-family="sans-serif" font-size="11" lengthAdjust="spacingAndGlyphs" textLength="215" x="1000.5" y="675.2808">NavigableSet&lt;K&gt; descendingKeySet()</text><text fill="#000000" font-family="sans-serif" font-size="11" lengthAdjust="spacingAndGlyphs" textLength="0" x="1004.5" y="688.0854"/><text fill="#000000" font-family="sans-serif" font-size="11" lengthAdjust="spacingAndGlyphs" textLength="261" x="1000.5" y="700.8901">SortedMap&lt;K,V&gt; subMap(K fromKey, K toKey)</text><text fill="#000000" font-family="sans-serif" font-size="11" lengthAdjust="spacingAndGlyphs" textLength="325" x="1000.5" y="713.6948">NavigableMap&lt;K,V&gt; headMap(K toKey, boolean inclusive)</text><text fill="#000000" font-family="sans-serif" font-size="11" lengthAdjust="spacingAndGlyphs" textLength="202" x="1000.5" y="726.4995">SortedMap&lt;K,V&gt; headMap(K toKey)</text><text fill="#000000" font-family="sans-serif" font-size="11" lengthAdjust="spacingAndGlyphs" textLength="325" x="1000.5" y="739.3042">NavigableMap&lt;K,V&gt; headMap(K toKey, boolean inclusive)</text><text fill="#000000" font-family="sans-serif" font-size="11" lengthAdjust="spacingAndGlyphs" textLength="207" x="1000.5" y="752.1089">SortedMap&lt;K,V&gt; tailMap(K fromKey)</text><text fill="#000000" font-family="sans-serif" font-size="11" lengthAdjust="spacingAndGlyphs" textLength="330" x="1000.5" y="764.9136">NavigableMap&lt;K,V&gt; tailMap(K fromKey, boolean inclusive)</text><!--class HashMap--><rect fill="#FEFECE" filter="url(#f1vb9kjcnmhqao)" height="48" id="HashMap" style="stroke: #A80036; stroke-width: 1.5;" width="114" x="1337.5" y="225"/><ellipse cx="1352.5" cy="241" fill="#ADD1B2" rx="11" ry="11" style="stroke: #A80036; stroke-width: 1.0;"/><path d="M1354.8438,236.6719 L1355.0156,236.75 C1355.2344,236.4375 1355.4375,236.3438 1355.7344,236.3438 C1356.0313,236.3438 1356.3125,236.4844 1356.4688,236.75 C1356.5625,236.9063 1356.5781,237.0313 1356.5781,237.4688 L1356.5781,238.8906 C1356.5781,239.3125 1356.5469,239.5 1356.4375,239.6563 C1356.2656,239.875 1356,240.0156 1355.7344,240.0156 C1355.5156,240.0156 1355.2813,239.9063 1355.1406,239.7656 C1355,239.6406 1354.9688,239.5156 1354.9063,239.1094 C1354.8125,238.7031 1354.6406,238.4844 1354.1563,238.2031 C1353.6875,237.9531 1353.0781,237.7969 1352.5,237.7969 C1350.7656,237.7969 1349.5156,239.1094 1349.5156,240.8906 L1349.5156,241.9844 C1349.5156,243.6875 1350.8125,244.7813 1352.8594,244.7813 C1353.625,244.7813 1354.3125,244.6563 1354.7344,244.3906 C1354.9219,244.2969 1354.9219,244.2969 1355.375,243.8125 C1355.5625,243.625 1355.7656,243.5469 1355.9844,243.5469 C1356.4531,243.5469 1356.8438,243.9375 1356.8438,244.3906 C1356.8438,244.7813 1356.5156,245.2344 1355.9375,245.6406 C1355.1875,246.1875 1354.0313,246.4844 1352.8125,246.4844 C1349.9219,246.4844 1347.8125,244.5938 1347.8125,242.0156 L1347.8125,240.8906 C1347.8125,238.1719 1349.8125,236.0938 1352.4375,236.0938 C1353.3125,236.0938 1353.9063,236.2344 1354.8438,236.6719 Z "/><text fill="#000000" font-family="sans-serif" font-size="12" lengthAdjust="spacingAndGlyphs" textLength="58" x="1366.5" y="245.1543">HashMap</text><rect fill="#FFFFFF" height="15.9688" style="stroke: #000000; stroke-width: 1.0; stroke-dasharray: 2.0,2.0;" width="22" x="1432.5" y="222"/><text fill="#000000" font-family="sans-serif" font-size="12" font-style="italic" lengthAdjust="spacingAndGlyphs" textLength="20" x="1433.5" y="234.1387">K,V</text><line style="stroke: #A80036; stroke-width: 1.5;" x1="1338.5" x2="1450.5" y1="257" y2="257"/><line style="stroke: #A80036; stroke-width: 1.5;" x1="1338.5" x2="1450.5" y1="265" y2="265"/><!--class TreeMap--><rect fill="#FEFECE" filter="url(#f1vb9kjcnmhqao)" height="48" id="TreeMap" style="stroke: #A80036; stroke-width: 1.5;" width="110" x="1110.5" y="909"/><ellipse cx="1125.5" cy="925" fill="#ADD1B2" rx="11" ry="11" style="stroke: #A80036; stroke-width: 1.0;"/><path d="M1127.8438,920.6719 L1128.0156,920.75 C1128.2344,920.4375 1128.4375,920.3438 1128.7344,920.3438 C1129.0313,920.3438 1129.3125,920.4844 1129.4688,920.75 C1129.5625,920.9063 1129.5781,921.0313 1129.5781,921.4688 L1129.5781,922.8906 C1129.5781,923.3125 1129.5469,923.5 1129.4375,923.6563 C1129.2656,923.875 1129,924.0156 1128.7344,924.0156 C1128.5156,924.0156 1128.2813,923.9063 1128.1406,923.7656 C1128,923.6406 1127.9688,923.5156 1127.9063,923.1094 C1127.8125,922.7031 1127.6406,922.4844 1127.1563,922.2031 C1126.6875,921.9531 1126.0781,921.7969 1125.5,921.7969 C1123.7656,921.7969 1122.5156,923.1094 1122.5156,924.8906 L1122.5156,925.9844 C1122.5156,927.6875 1123.8125,928.7813 1125.8594,928.7813 C1126.625,928.7813 1127.3125,928.6563 1127.7344,928.3906 C1127.9219,928.2969 1127.9219,928.2969 1128.375,927.8125 C1128.5625,927.625 1128.7656,927.5469 1128.9844,927.5469 C1129.4531,927.5469 1129.8438,927.9375 1129.8438,928.3906 C1129.8438,928.7813 1129.5156,929.2344 1128.9375,929.6406 C1128.1875,930.1875 1127.0313,930.4844 1125.8125,930.4844 C1122.9219,930.4844 1120.8125,928.5938 1120.8125,926.0156 L1120.8125,924.8906 C1120.8125,922.1719 1122.8125,920.0938 1125.4375,920.0938 C1126.3125,920.0938 1126.9063,920.2344 1127.8438,920.6719 Z "/><text fill="#000000" font-family="sans-serif" font-size="12" lengthAdjust="spacingAndGlyphs" textLength="54" x="1139.5" y="929.1543">TreeMap</text><rect fill="#FFFFFF" height="15.9688" style="stroke: #000000; stroke-width: 1.0; stroke-dasharray: 2.0,2.0;" width="22" x="1201.5" y="906"/><text fill="#000000" font-family="sans-serif" font-size="12" font-style="italic" lengthAdjust="spacingAndGlyphs" textLength="20" x="1202.5" y="918.1387">K,V</text><line style="stroke: #A80036; stroke-width: 1.5;" x1="1111.5" x2="1219.5" y1="941" y2="941"/><line style="stroke: #A80036; stroke-width: 1.5;" x1="1111.5" x2="1219.5" y1="949" y2="949"/><!--class Hashtable--><rect fill="#FEFECE" filter="url(#f1vb9kjcnmhqao)" height="48" id="Hashtable" style="stroke: #A80036; stroke-width: 1.5;" width="120" x="1486.5" y="225"/><ellipse cx="1501.5" cy="241" fill="#ADD1B2" rx="11" ry="11" style="stroke: #A80036; stroke-width: 1.0;"/><path d="M1503.8438,236.6719 L1504.0156,236.75 C1504.2344,236.4375 1504.4375,236.3438 1504.7344,236.3438 C1505.0313,236.3438 1505.3125,236.4844 1505.4688,236.75 C1505.5625,236.9063 1505.5781,237.0313 1505.5781,237.4688 L1505.5781,238.8906 C1505.5781,239.3125 1505.5469,239.5 1505.4375,239.6563 C1505.2656,239.875 1505,240.0156 1504.7344,240.0156 C1504.5156,240.0156 1504.2813,239.9063 1504.1406,239.7656 C1504,239.6406 1503.9688,239.5156 1503.9063,239.1094 C1503.8125,238.7031 1503.6406,238.4844 1503.1563,238.2031 C1502.6875,237.9531 1502.0781,237.7969 1501.5,237.7969 C1499.7656,237.7969 1498.5156,239.1094 1498.5156,240.8906 L1498.5156,241.9844 C1498.5156,243.6875 1499.8125,244.7813 1501.8594,244.7813 C1502.625,244.7813 1503.3125,244.6563 1503.7344,244.3906 C1503.9219,244.2969 1503.9219,244.2969 1504.375,243.8125 C1504.5625,243.625 1504.7656,243.5469 1504.9844,243.5469 C1505.4531,243.5469 1505.8438,243.9375 1505.8438,244.3906 C1505.8438,244.7813 1505.5156,245.2344 1504.9375,245.6406 C1504.1875,246.1875 1503.0313,246.4844 1501.8125,246.4844 C1498.9219,246.4844 1496.8125,244.5938 1496.8125,242.0156 L1496.8125,240.8906 C1496.8125,238.1719 1498.8125,236.0938 1501.4375,236.0938 C1502.3125,236.0938 1502.9063,236.2344 1503.8438,236.6719 Z "/><text fill="#000000" font-family="sans-serif" font-size="12" lengthAdjust="spacingAndGlyphs" textLength="64" x="1515.5" y="245.1543">Hashtable</text><rect fill="#FFFFFF" height="15.9688" style="stroke: #000000; stroke-width: 1.0; stroke-dasharray: 2.0,2.0;" width="22" x="1587.5" y="222"/><text fill="#000000" font-family="sans-serif" font-size="12" font-style="italic" lengthAdjust="spacingAndGlyphs" textLength="20" x="1588.5" y="234.1387">K,V</text><line style="stroke: #A80036; stroke-width: 1.5;" x1="1487.5" x2="1605.5" y1="257" y2="257"/><line style="stroke: #A80036; stroke-width: 1.5;" x1="1487.5" x2="1605.5" y1="265" y2="265"/><!--link Iterable to Collection--><path d="M361.5,89.51 C361.5,101.63 361.5,115.11 361.5,128.94 " fill="none" id="Iterable-Collection" style="stroke: #A80036; stroke-width: 1.0;"/><polygon fill="none" points="354.5,89.37,361.5,69.37,368.5,89.37,354.5,89.37" style="stroke: #A80036; stroke-width: 1.0;"/><!--link Collection to Queue--><path d="M246.645,385.194 C236.259,399.614 226.341,414.366 217.5,429 C193.972,467.943 173.913,515.711 160.639,550.768 " fill="none" id="Collection-Queue" style="stroke: #A80036; stroke-width: 1.0;"/><polygon fill="none" points="241.03,381.014,258.538,369.078,252.295,389.327,241.03,381.014" style="stroke: #A80036; stroke-width: 1.0;"/><!--link Queue to Deque--><path d="M129.429,669.889 C119.808,716.649 106.897,779.401 96.12,831.781 " fill="none" id="Queue-Deque" style="stroke: #A80036; stroke-width: 1.0;"/><polygon fill="none" points="122.579,668.445,133.466,650.266,136.292,671.267,122.579,668.445" style="stroke: #A80036; stroke-width: 1.0;"/><!--link Queue to PriorityQueue--><path d="M164.341,669.698 C187.172,744.406 222.528,860.103 237.462,908.969 " fill="none" id="Queue-PriorityQueue" style="stroke: #A80036; stroke-width: 1.0;"/><polygon fill="none" points="157.554,671.439,158.403,650.266,170.942,667.347,157.554,671.439" style="stroke: #A80036; stroke-width: 1.0;"/><!--link Collection to List--><path d="M361.5,389.496 C361.5,440.882 361.5,496.511 361.5,537.598 " fill="none" id="Collection-List" style="stroke: #A80036; stroke-width: 1.0;"/><polygon fill="none" points="354.5,389.301,361.5,369.301,368.5,389.301,354.5,389.301" style="stroke: #A80036; stroke-width: 1.0;"/><!--link Collection to Set--><path d="M505.866,306.867 C562.803,335.771 624.312,376.143 665.5,429 C700.103,473.406 710.78,541.149 714.059,576.388 " fill="none" id="Collection-Set" style="stroke: #A80036; stroke-width: 1.0;"/><polygon fill="none" points="502.439,312.982,487.572,297.88,508.61,300.42,502.439,312.982" style="stroke: #A80036; stroke-width: 1.0;"/><!--link List to ArrayList--><path d="M400.693,681.458 C437.173,755.882 489.24,862.105 512.052,908.645 " fill="none" id="List-ArrayList" style="stroke: #A80036; stroke-width: 1.0; stroke-dasharray: 7.0,7.0;"/><polygon fill="none" points="394.298,684.316,391.781,663.277,406.869,678.154,394.298,684.316" style="stroke: #A80036; stroke-width: 1.0;"/><!--link RandomAccess to ArrayList--><path d="M577.38,644.787 C564.09,715.632 538.144,853.936 527.855,908.786 " fill="none" id="RandomAccess-ArrayList" style="stroke: #A80036; stroke-width: 1.0; stroke-dasharray: 7.0,7.0;"/><polygon fill="none" points="570.573,643.107,581.14,624.74,584.333,645.688,570.573,643.107" style="stroke: #A80036; stroke-width: 1.0;"/><!--link List to LinkedList--><path d="M370.721,683.171 C377.359,773.362 377.526,920.782 325.5,1034 C309.262,1069.338 276.391,1099.868 251.344,1119.459 " fill="none" id="List-LinkedList" style="stroke: #A80036; stroke-width: 1.0; stroke-dasharray: 7.0,7.0;"/><polygon fill="none" points="363.74,683.687,369.073,663.179,377.692,682.537,363.74,683.687" style="stroke: #A80036; stroke-width: 1.0;"/><!--link Deque to LinkedList--><path d="M155.735,1050.986 C173.555,1076.969 190.64,1101.88 202.473,1119.133 " fill="none" id="Deque-LinkedList" style="stroke: #A80036; stroke-width: 1.0; stroke-dasharray: 7.0,7.0;"/><polygon fill="none" points="149.817,1054.733,144.277,1034.28,161.362,1046.815,149.817,1054.733" style="stroke: #A80036; stroke-width: 1.0;"/><!--link Set to HashSet--><path d="M711.571,644.787 C705.14,715.632 692.586,853.936 687.607,908.786 " fill="none" id="Set-HashSet" style="stroke: #A80036; stroke-width: 1.0; stroke-dasharray: 7.0,7.0;"/><polygon fill="none" points="704.611,644.025,713.39,624.74,718.554,645.291,704.611,644.025" style="stroke: #A80036; stroke-width: 1.0;"/><!--link Set to SortedSet--><path d="M740.714,641.757 C778.809,702.58 850.933,817.734 891.953,883.228 " fill="none" id="Set-SortedSet" style="stroke: #A80036; stroke-width: 1.0;"/><polygon fill="none" points="734.74,645.406,730.056,624.74,746.604,637.974,734.74,645.406" style="stroke: #A80036; stroke-width: 1.0;"/><!--link SortedSet to NavigableSet--><path d="M922.5,1002.866 C922.5,1032.621 922.5,1066.739 922.5,1093.802 " fill="none" id="SortedSet-NavigableSet" style="stroke: #A80036; stroke-width: 1.0;"/><polygon fill="none" points="915.5,1002.621,922.5,982.621,929.5,1002.621,915.5,1002.621" style="stroke: #A80036; stroke-width: 1.0;"/><!--link NavigableSet to TreeSet--><path d="M922.5,1213.2257 C922.5,1227.5804 922.5,1241.7456 922.5,1252.9769 " fill="none" id="NavigableSet-TreeSet" style="stroke: #A80036; stroke-width: 1.0; stroke-dasharray: 7.0,7.0;"/><polygon fill="none" points="915.5,1213.0922,922.5,1193.092,929.5,1213.0921,915.5,1213.0922" style="stroke: #A80036; stroke-width: 1.0;"/><!--link HashSet to LinkedHashSet--><path d="M685.5,977.155 C685.5,1020.299 685.5,1085.018 685.5,1119.287 " fill="none" id="HashSet-LinkedHashSet" style="stroke: #A80036; stroke-width: 1.0;"/><polygon fill="none" points="678.5,977.11,685.5,957.11,692.5,977.11,678.5,977.11" style="stroke: #A80036; stroke-width: 1.0;"/><!--link Map to SortedMap--><path d="M1354.03,76.35 C1320.68,106.71 1272.67,150.43 1233.44,186.14 " fill="none" id="Map-SortedMap" style="stroke: #A80036; stroke-width: 1.0;"/><polygon fill="none" points="1349.62,70.9,1369.12,62.61,1359.04,81.25,1349.62,70.9" style="stroke: #A80036; stroke-width: 1.0;"/><!--link SortedMap to NavigableMap--><path d="M1165.5,331.971 C1165.5,361.115 1165.5,395.107 1165.5,428.893 " fill="none" id="SortedMap-NavigableMap" style="stroke: #A80036; stroke-width: 1.0;"/><polygon fill="none" points="1158.5,331.679,1165.5,311.679,1172.5,331.679,1158.5,331.679" style="stroke: #A80036; stroke-width: 1.0;"/><!--link Map to HashMap--><path d="M1394.5,82.65 C1394.5,125.8 1394.5,190.52 1394.5,224.79 " fill="none" id="Map-HashMap" style="stroke: #A80036; stroke-width: 1.0; stroke-dasharray: 7.0,7.0;"/><polygon fill="none" points="1387.5,82.61,1394.5,62.61,1401.5,82.61,1387.5,82.61" style="stroke: #A80036; stroke-width: 1.0;"/><!--link NavigableMap to TreeMap--><path d="M1165.5,792.295 C1165.5,839.181 1165.5,883.255 1165.5,908.926 " fill="none" id="NavigableMap-TreeMap" style="stroke: #A80036; stroke-width: 1.0; stroke-dasharray: 7.0,7.0;"/><polygon fill="none" points="1158.5,792.075,1165.5,772.075,1172.5,792.075,1158.5,792.075" style="stroke: #A80036; stroke-width: 1.0;"/><!--link Map to Hashtable--><path d="M1428.8,78.3 C1441.97,93.74 1456.86,111.87 1469.5,129 C1493.18,161.07 1517.72,200.21 1532.56,224.62 " fill="none" id="Map-Hashtable" style="stroke: #A80036; stroke-width: 1.0; stroke-dasharray: 7.0,7.0;"/><polygon fill="none" points="1423.17,82.49,1415.37,62.79,1433.75,73.33,1423.17,82.49" style="stroke: #A80036; stroke-width: 1.0;"/><!--
@startuml
interface Iterable<T> {

    Iterator<T> iterator()

}

interface Map<K,V>

interface Collection<E> extends Iterable {

    int size()

    Object[] toArray()
    <T> T[] toArray(T[] a)

    boolean add(E e)
    boolean addAll(Collection<? extends E> c)
    boolean remove(Object o)
    void clear()

    boolean retainAll(Collection<?> c)

    boolean isEmpty()
    boolean contains(Object o)
    boolean containsAll(Collection<?> c)
}

interface Queue<E> extends Collection {

    boolean offer(E e)
    E poll()
    E element()
    E peek()
}

interface Deque<E> extends Queue {

    void addFirst(E e)
    void addLast(E e)
    boolean offerFirst(E e)
    boolean offerLast(E e)
    E removeFirst()
    E removeLast()
    E pollFirst()
    E pollLast()
    E getFirst()
    E getLast()
    E peekFirst()
    E peekLast()
}

class PriorityQueue<E> extends Queue

interface List<E> extends Collection {

    int indexOf(Object o)
    int lastIndexOf(Object o)

    ListIterator<E> listIterator(int index)

    List<E> subList(int fromIndex, int toIndex)
}

interface Set<E> extends Collection


class ArrayList<E> implements List, RandomAccess

class LinkedList<E> implements List, Deque


class HashSet<E> implements Set

interface SortedSet<E> extends Set {
    Comparator<? super E> comparator()
    SortedSet<E> subSet(E fromElement, E toElement)
    SortedSet<E> headSet(E toElement)
    SortedSet<E> tailSet(E fromElement)
}

interface NavigableSet<E> extends SortedSet {
    E lower(E e)
    E floor(E e)
    E ceiling(E e)
    E higher(E e)
}



class TreeSet<E> implements NavigableSet

class LinkedHashSet<E> extends HashSet

interface SortedMap<K,V> extends Map {

    Comparator<? super K> comparator()

    SortedMap<K,V> subMap(K fromKey, K toKey)

    SortedMap<K,V> headMap(K toKey)
    SortedMap<K,V> tailMap(K fromKey)
}

interface NavigableMap<K,V> extends SortedMap {

    Map.Entry<K,V> lowerEntry(K key)
    K lowerKey(K key)
    Map.Entry<K,V> floorEntry(K key)
    K floorKey(K key)
    Map.Entry<K,V> ceilingEntry(K key)
    K ceilingKey(K key)
    Map.Entry<K,V> higherEntry(K key)
    K higherKey(K key)
    Map.Entry<K,V> firstEntry()
    Map.Entry<K,V> lastEntry()
    Map.Entry<K,V> pollFirstEntry()
    Map.Entry<K,V> pollLastEntry()

    NavigableMap<K,V> descendingMap()
    NavigableSet<K> navigableKeySet()
    NavigableSet<K> descendingKeySet()

    SortedMap<K,V> subMap(K fromKey, K toKey)
    NavigableMap<K,V> headMap(K toKey, boolean inclusive)
    SortedMap<K,V> headMap(K toKey)
    NavigableMap<K,V> headMap(K toKey, boolean inclusive)
    SortedMap<K,V> tailMap(K fromKey)
    NavigableMap<K,V> tailMap(K fromKey, boolean inclusive)
}

class HashMap<K,V> implements Map

class TreeMap<K,V> implements NavigableMap

class Hashtable<K,V> implements Map
@enduml

PlantUML version 1.2019.05(Sat Apr 20 16:45:36 UTC 2019)
(GPL source distribution)
Java Runtime: Java(TM) SE Runtime Environment
JVM: Java HotSpot(TM) 64-Bit Server VM
Java Version: 1.7.0_25-b15
Operating System: Linux
Default Encoding: UTF-8
Language: en
Country: US
--></g></svg>